<svg width="382" height="132" viewBox="0 0 382 132" fill="none" xmlns="http://www.w3.org/2000/svg">
<path d="M142.514 94.3522H130.54V39.7798H142.514V61.3137H163.654V39.7798H175.628V94.3522H163.654V72.3757H142.514V94.3522ZM193.048 95.3109C185.213 95.3109 180.335 90.7386 180.335 83.5114C180.335 76.7268 185.139 72.5232 194.009 71.8595L204.357 71.0483V70.4583C204.357 66.8447 202.14 64.9273 198.075 64.9273C193.27 64.9273 190.683 66.771 190.683 70.0896H181.222C181.222 61.7562 188.096 56.299 198.666 56.299C209.384 56.299 215.445 62.2724 215.445 72.8182V94.3522H205.392L204.653 89.4849C203.47 92.8772 198.592 95.3109 193.048 95.3109ZM197.04 86.9038C201.401 86.9038 204.431 84.7651 204.431 80.5616V78.5704L198.666 79.0866C193.714 79.5291 191.94 80.6353 191.94 82.9952C191.94 85.6501 193.566 86.9038 197.04 86.9038ZM217.917 75.768C217.917 64.4111 225.752 56.299 236.84 56.299C247.779 56.299 255.023 62.2724 255.762 71.9332H244.305C243.492 68.2459 241.201 66.476 237.283 66.476C232.479 66.476 229.374 70.0896 229.374 75.768C229.374 81.6678 232.257 85.1338 237.135 85.1338C241.127 85.1338 243.566 83.2902 244.305 79.6766H255.762C255.023 88.9687 247.484 95.3109 237.135 95.3109C225.457 95.3109 217.917 87.5675 217.917 75.768ZM269.683 94.3522H258.3V38.7473H269.683V70.7533L281.657 57.4789H295.923L282.027 72.0807L295.48 94.3522H282.323L274.044 80.5616L269.683 85.1338V94.3522ZM339.331 84.6914H332.604V94.3522H321.296V84.6914H294.095V74.2194L317.675 39.7798H332.604V74.2194H339.331V84.6914ZM306.808 74.2194H321.296V52.9804L306.808 74.2194ZM370.521 79.6766L359.803 94.3522H346.129L358.62 77.6117C357.881 77.7592 357.142 77.833 356.403 77.833C345.166 77.833 337.48 70.0896 337.48 58.8801C337.48 46.9332 346.275 38.8211 358.397 38.8211C370.667 38.8211 379.612 47.5231 379.612 58.9538C379.612 65.6648 377.174 70.6058 370.521 79.6766ZM367.341 58.8064C367.341 53.2016 363.72 49.3668 358.397 49.3668C353.222 49.3668 349.601 53.2016 349.601 58.8064C349.601 64.4111 353.151 68.1722 358.397 68.1722C363.794 68.1722 367.341 64.4111 367.341 58.8064Z" fill="white"/>
<mask id="mask0_5_342" style="mask-type:luminance" maskUnits="userSpaceOnUse" x="0" y="0" width="132" height="132">
<path d="M131.681 0.619629H0V132H131.681V0.619629Z" fill="white"/>
</mask>
<g mask="url(#mask0_5_342)">
<path d="M68.4033 16.4968V38.9463H88.1278C87.0253 35.8068 85.7511 32.9087 84.3249 30.3276C79.8993 22.3207 74.2817 17.4932 68.4033 16.4968ZM62.8239 16.7159C57.3225 18.076 52.1 22.79 47.9355 30.3276C46.5094 32.9087 45.2351 35.8068 44.1326 38.9463H62.8239V16.7159ZM49.9685 18.2205C38.8154 21.8548 29.3971 29.2645 23.2206 38.9472H38.2349C39.5595 34.8382 41.1732 31.0384 43.0469 27.6464C45.0476 24.0267 47.3765 20.8361 49.9685 18.2205ZM82.7873 18.7366C85.1808 21.2532 87.3421 24.2602 89.2123 27.6464C91.0873 31.0384 92.6975 34.8382 94.0187 38.9472H108.006C102.115 29.7104 93.2743 22.532 82.7873 18.7366ZM20.1485 44.5076C17.4112 50.315 15.8255 56.5946 15.4785 63.0013H34.2143C34.4311 56.4713 35.2823 50.2472 36.6715 44.5076H20.1485ZM42.4375 44.5076C40.9645 50.1536 40.0384 56.4022 39.8005 63.0025H62.8239V44.5076H42.4375ZM68.4045 44.5076V63.0013H92.4618C92.2255 56.4013 91.2981 50.1526 89.8239 44.5076H68.4045ZM95.5821 44.5076C96.9691 50.2493 97.8182 56.4735 98.0347 63.0025H115.75C115.403 56.5959 113.818 50.3162 111.081 44.5089L95.5821 44.5076ZM15.4785 68.5617C15.8251 74.9683 17.4105 81.2479 20.1474 87.0553H36.4081C35.0982 81.2994 34.327 75.074 34.1832 68.5617H15.4785ZM39.7626 68.5617C39.9188 75.1397 40.7682 81.384 42.1574 87.0553H62.8239V68.5617H39.7626ZM68.4033 68.5617V87.0553H90.1018C91.4913 81.384 92.3404 75.1397 92.4975 68.5617H68.4033ZM98.0592 68.5617C97.9154 75.0728 97.1499 81.2981 95.843 87.0553H111.08C113.817 81.2479 115.402 74.9683 115.749 68.5617H98.0592ZM23.2206 92.6157C29.1181 101.86 37.966 109.043 48.4623 112.837C46.4703 110.557 44.6513 107.936 43.0469 105.032C41.0046 101.335 39.2651 97.1586 37.8802 92.617L23.2206 92.6157ZM43.7463 92.6157C44.9314 96.1921 46.342 99.4652 47.9355 102.35C51.8413 109.417 56.6774 113.999 61.7993 115.666C62.141 115.691 62.4801 115.726 62.8239 115.744V92.6179L43.7463 92.6157ZM68.4033 92.6157V115.745C69.1959 115.703 69.9872 115.643 70.7766 115.565C75.7815 113.813 80.4996 109.272 84.3237 102.35C85.9184 99.4652 87.3287 96.1921 88.5129 92.617L68.4033 92.6157ZM94.3759 92.6157C92.9932 97.1586 91.2556 101.335 89.2123 105.032C87.7496 107.681 86.1082 110.099 84.3181 112.234C94.079 108.325 102.364 101.464 108.006 92.617L94.3759 92.6157Z" fill="white"/>
<path d="M63.3376 9.7833V10.6909L65.6144 9.7833L67.8918 10.6909V9.7833L66.5253 8.87541V6.74897L70.1689 8.06284V7.20341L66.5256 4.3366L66.5253 2.52114C66.5275 2.40063 66.5054 2.2809 66.4607 2.16896C66.416 2.05701 66.3492 1.95508 66.2644 1.86912C66.1797 1.78315 66.0784 1.71488 65.9669 1.66827C65.8554 1.62166 65.7355 1.59766 65.6147 1.59766C65.4936 1.59766 65.374 1.62166 65.2625 1.66827C65.1511 1.71488 65.0498 1.78315 64.965 1.86912C64.8802 1.95508 64.8135 2.05701 64.7687 2.16896C64.724 2.2809 64.702 2.40063 64.7041 2.52114V4.38441L61.0605 7.25092L61.0609 8.06315L64.7045 6.7878V8.87572L63.3376 9.7833Z" fill="white"/>
<path d="M127.189 63.8261C128.494 61.7708 131.681 62.6936 131.681 65.1269V66.9975C131.681 69.4228 128.516 70.3573 127.193 68.3228C126.743 67.6306 125.972 67.2129 125.145 67.2129H1.13129C0.506497 67.2129 7.45987e-09 66.7075 0 66.084C-7.45987e-09 65.4606 0.506493 64.9555 1.13128 64.9555H125.131C125.966 64.9555 126.742 64.5292 127.189 63.8261Z" fill="url(#paint0_linear_5_342)"/>
<path d="M64.7075 130.87C64.7075 131.494 65.2146 132 65.8401 132C66.4656 132 66.9727 131.494 66.9727 130.87L66.9727 10.0267C66.9727 9.4026 66.4656 8.89667 65.8401 8.89667C65.2146 8.89667 64.7075 9.4026 64.7075 10.0267L64.7075 130.87Z" fill="url(#paint1_linear_5_342)"/>
</g>
<defs>
<linearGradient id="paint0_linear_5_342" x1="131.681" y1="66.084" x2="0" y2="66.084" gradientUnits="userSpaceOnUse">
<stop stop-color="white"/>
<stop offset="0.5" stop-color="#011029"/>
<stop offset="1" stop-color="white"/>
</linearGradient>
<linearGradient id="paint1_linear_5_342" x1="65.84" y1="132" x2="65.84" y2="8.89667" gradientUnits="userSpaceOnUse">
<stop stop-color="white"/>
<stop offset="0.525" stop-color="#011029"/>
<stop offset="1" stop-color="white"/>
</linearGradient>
</defs>
</svg>
