<svg width="442" height="100" viewBox="0 0 442 100" fill="none" xmlns="http://www.w3.org/2000/svg">
<g clip-path="url(#clip0_390_5)">
<path d="M99.8 52V48.5L93.1 43.9C92.9 42.4 92.6 40.8 92.3 39.3L96.7 32.8L95.3 29.5L87.4 27.7C86.6 26.4 85.7 25.1 84.8 23.9L86.5 16.1L84.1 13.7L76.1 15.1C74.9 14.2 73.6 13.3 72.3 12.5L70.9 4.7L67.6 3.3L60.8 7.7C59.3 7.3 57.8 7 56.2 6.8L51.8 0H48.3L43.7 6.7C42.2 6.9 40.6 7.2 39.1 7.6L32.6 3.1L29.3 4.5L27.5 12.4C26.3 13.2 25 14 23.8 15L16 13.3L13.6 15.7L15.1 23.7C14.2 24.9 13.3 26.2 12.5 27.5L4.5 29L3.2 32.3L7.6 39.1C7.2 40.6 6.9 42.1 6.7 43.7L0 48.1V51.6L6.7 56.2C6.9 57.7 7.2 59.3 7.5 60.8L3.1 67.3L4.5 70.6L12.4 72.4C13.2 73.7 14.1 75 15 76.2L13.3 84L15.7 86.4L23.7 85C24.9 86 26.2 86.8 27.5 87.6L28.9 95.4L32.2 96.8L39 92.4C40.5 92.8 42 93.1 43.6 93.3L48 100H51.5L56.1 93.3C57.6 93.1 59.2 92.8 60.7 92.5L67.2 97L70.5 95.6L72.3 87.7C73.6 86.9 74.9 86 76.1 85.1L83.9 86.8L86.3 84.4L84.9 76.3C85.8 75.1 86.7 73.8 87.5 72.5L95.3 71.1L96.7 67.8L92.3 61C92.7 59.5 92.9 58 93.1 56.4L99.8 52ZM76 76.1C61.6 90.5 38.3 90.5 23.9 76.1C9.5 61.6 9.5 38.3 23.9 23.9C38.2 9.5 61.6 9.5 76 23.9C90.3 38.3 90.3 61.7 76 76.1Z" fill="white"/>
<path d="M44.2 66.9001C43.9 67.3001 43.9 67.9001 44.3 68.2001C44.7 68.5001 45.2 68.5001 45.6 68.1001H46.1C47.6 68.1001 49.1 67.9001 50.5 67.5001C49.6 68.4001 48.4 69.0001 47.1 69.1001C46.6 69.1001 46.1 69.3001 45.7 69.6001L45.6 69.7001C44.3 70.6001 42.8 71.2001 41.3 71.3001C41.1 71.1001 40.8 71.0001 40.5 71.0001C40.2 71.0001 40 71.2001 39.8 71.4001C39.5 71.8001 39.6 72.4001 40 72.6001C40.4 72.9001 41 72.8001 41.2 72.4001H41.3C41.4 72.4001 41.4 72.4001 41.5 72.4001C42.4 72.2001 43.3 72.0001 44.1 71.6001C43.8 72.3001 43.4 72.9001 43.1 73.6001C42.3 73.9001 41.5 74.1001 40.6 74.2001C40.5 74.1001 40.4 74.0001 40.4 74.0001C40 73.7001 39.4 73.9001 39.2 74.3001C39 74.7001 39.1 75.3001 39.5 75.5001C39.9 75.8001 40.5 75.6001 40.7 75.2001C40.8 75.2001 40.9 75.2001 40.9 75.2001C41.4 75.1001 42 75.0001 42.5 74.8001C42.2 75.4001 41.9 76.1001 41.7 76.7001C41.2 76.9001 40.6 77.0001 40.1 77.0001C39.9 76.8001 39.6 76.7001 39.3 76.7001C39 76.7001 38.8 76.9001 38.6 77.1001C38.3 77.5001 38.4 78.1001 38.8 78.3001C39.2 78.6001 39.8 78.5001 40 78.1001H40.1C40.2 78.1001 40.2 78.1001 40.3 78.1001C40.6 78.1001 40.8 78.0001 41.1 77.9001C40.8 78.5001 40.6 79.2001 40.4 79.8001C40.3 80.0001 40.3 80.1001 40.2 80.3001C40.1 80.6001 39.8 80.8001 39.5 80.8001H39.4C38.8 80.7001 38.1 80.7001 37.5 80.5001C37 80.3001 36.8 79.8001 36.9 79.3001C37 78.9001 37.1 78.5001 37.1 78.1001C37.3 77.0001 37.5 75.9001 37.8 74.8001C38.1 74.0001 37.8 73.2001 37.2 72.7001C37 72.6001 36.9 72.4001 36.8 72.2001C36.6 72.0001 36.3 71.7001 36 71.6001C36.3 71.5001 36.7 71.4001 37 71.2001C37.1 71.2001 37.1 71.1001 37.2 71.1001H37.3C37.6 71.2001 37.8 71.2001 38.1 71.0001C38.5 70.8001 38.7 70.2001 38.4 69.8001C38.1 69.4001 37.6 69.2001 37.2 69.5001C37 69.6001 36.8 69.9001 36.8 70.2001C35.6 70.9001 34.3 71.2001 33 71.2001C32.9 71.2001 32.8 71.2001 32.7 71.2001C31.9 71.1001 31.1 70.9001 30.4 70.6001C29.8 70.4001 29.2 70.1001 28.7 69.8001C29.2 69.5001 29.7 69.2001 30.3 69.1001C30.4 69.2001 30.4 69.2001 30.5 69.2001C30.9 69.4001 31.5 69.2001 31.7 68.8001C31.9 68.3001 31.7 67.8001 31.3 67.6001C30.8 67.4001 30.3 67.6001 30.1 68.0001C29.7 68.1001 29.4 68.2001 29 68.3001L28.8 68.4001C28.5 68.5001 28.2 68.6001 27.8 68.7001H27.6C27.4 68.8001 27.1 68.7001 26.9 68.6001C26.7 68.4001 26.5 68.3001 26.3 68.1001C26.1 67.9001 25.9 67.8001 25.7 67.6001L25.6 67.7001L25.7 67.5001C25.9 67.4001 26.1 67.3001 26.3 67.2001C26.6 67.1001 27.1 66.9001 27.7 66.6001C28 66.4001 28.3 66.3001 28.5 66.2001C28.9 65.9001 29.4 65.7001 29.9 65.7001C31.3 65.5001 32.6 65.2001 34.1 65.0001H34.4C34.7 64.9001 35.1 64.9001 35.4 65.0001C35.4 65.1001 35.5 65.2001 35.5 65.2001C35.4 65.3001 35.3 65.5001 35.3 65.6001C35.3 66.1001 35.6 66.6001 36.1 66.6001C36.6 66.6001 37.1 66.3001 37.1 65.8001C37.1 65.3001 36.8 64.8001 36.3 64.8001C36.3 64.8001 36.3 64.8001 36.3 64.7001C36.2 64.4001 36.1 64.1001 36.2 63.8001C36.2 63.7001 36.2 63.6001 36.3 63.5001C36.4 63.5001 36.5 63.4001 36.6 63.3001C37 63.0001 37.1 62.5001 36.8 62.1001C36.5 61.7001 35.9 61.6001 35.6 61.9001C35.2 62.2001 35.1 62.7001 35.4 63.1001C35.3 63.2001 35.3 63.3001 35.2 63.5001C35.1 63.7001 35 63.7001 34.4 63.8001H34.1C34 63.9001 33.5 63.9001 33 64.0001H32.9C32 64.1001 31.1 64.2001 30.3 64.4001H30.2C30 64.5001 29.7 64.4001 29.5 64.3001C29.5 64.3001 29.3 64.2001 29.1 64.1001C29.1 64.0001 29.1 63.9001 29.1 63.9001C29.1 63.4001 28.7 63.0001 28.2 63.0001C27.7 63.0001 27.3 63.4001 27.3 63.9001C27.3 64.4001 27.7 64.8001 28.2 64.8001C28.3 64.8001 28.4 64.8001 28.5 64.8001C28.6 64.9001 28.7 65.0001 28.8 65.1001C28.7 65.2001 28.6 65.2001 28.5 65.3001C26 66.7001 25.2 66.6001 25.1 66.5001C24.9 66.1001 24.7 65.8001 24.6 65.5001C24.5 65.2001 24.4 64.9001 24.4 64.6001C24.4 64.4001 24.4 64.3001 24.3 64.1001C24.3 64.0001 24.2 63.9001 24.2 63.8001C26 63.4001 27.8 62.8001 29.4 62.0001C30.9 61.3001 32.5 61.1001 34.2 61.2001C33.6 61.7001 33 62.0001 32.2 62.2001C32 62.0001 31.7 62.0001 31.5 62.0001C31.2 62.1001 31 62.3001 30.9 62.5001C30.7 63.0001 30.9 63.5001 31.4 63.7001C31.9 63.9001 32.4 63.6001 32.6 63.2001H32.7C33.3 63.0001 33.9 62.7001 34.5 62.3001L34.8 62.1001C35.2 61.8001 35.7 61.6001 36.2 61.4001C36.3 61.3001 36.5 61.3001 36.6 61.3001H36.7C37.3 61.4001 37.7 61.4001 38 61.4001C38.6 61.5001 39.3 61.5001 39.9 61.7001C40.7 61.8001 42.6 62.3001 43.9 62.7001C42.7 63.4001 41.3 63.7001 39.8 63.7001H39.7C39.7 63.7001 39.6 63.7001 39.6 63.6001C39.2 63.3001 38.6 63.4001 38.4 63.8001C38.1 64.2001 38.2 64.8001 38.6 65.0001C39 65.3001 39.6 65.2001 39.8 64.8001H39.9H40C40.1 64.8001 40.2 64.8001 40.2 64.8001C41.4 64.7001 42.5 64.4001 43.6 63.9001L43.8 63.8001C44.1 63.6001 44.5 63.5001 44.8 63.4001C45.1 63.3001 45.4 63.3001 45.7 63.4001C46.2 63.6001 46.6 63.9001 47 64.1001H47.1L47.3 64.3001C45.6 64.7001 43.9 65.3001 42.4 66.1001L41.6 66.5001C41.3 66.6001 41.2 66.7001 41 66.8001L40.7 67.0001C39.7 67.4001 38.6 67.6001 37.4 67.7001C37 67.7001 36.7 67.8001 36.3 67.8001H36.1C35.6 67.9001 35.1 67.9001 34.6 67.7001C34.4 67.5001 34.2 67.3001 34.1 67.2001C34.1 67.1001 34.1 67.1001 34.1 67.0001C34.1 66.5001 33.7 66.1001 33.2 66.1001C32.7 66.1001 32.3 66.5001 32.3 67.0001C32.3 67.5001 32.7 67.9001 33.2 67.9001C33.3 67.9001 33.4 67.9001 33.5 67.9001C33.6 68.0001 33.6 68.1001 33.7 68.1001C34 68.4001 34.1 68.8001 34 69.2001C33.6 69.3001 33.3 69.7001 33.3 70.1001C33.3 70.6001 33.7 71.0001 34.2 71.0001C34.7 71.0001 35.1 70.6001 35.1 70.1001C35.1 69.9001 35 69.7001 34.9 69.5001C34.9 69.4001 35 69.3001 35 69.1001C35 69.0001 35 69.0001 35.6 69.0001H35.9L36.9 68.9001C37.4 68.9001 37.7 68.8001 38.3 68.8001H39.1C39.2 68.8001 39.2 68.8001 39.3 68.8001H39.4C39.6 68.8001 39.8 68.8001 39.9 68.9001C39.9 68.9001 40.1 69.0001 40.2 69.1001L40.3 69.2001L40.5 69.3001C40.5 69.4001 40.5 69.4001 40.5 69.5001C40.5 70.0001 40.9 70.4001 41.4 70.4001C41.9 70.4001 42 69.5001 42 69.0001C42 68.5001 41.6 68.1001 41.1 68.1001C41 68.1001 40.9 68.1001 40.8 68.1001C40.7 68.0001 40.6 67.9001 40.4 67.7001C40.6 67.6001 40.9 67.5001 41.1 67.4001C41.2 67.4001 41.3 67.3001 41.4 67.3001C41.5 67.3001 42 67.0001 42.4 66.8001C44.9 65.5001 48.1 64.5001 49.2 65.2001L49.3 65.3001C49.9 65.7001 50.4 65.9001 50.9 66.2001C49.1 66.8001 47.3 67.0001 45.5 66.9001C45.3 66.7001 45.1 66.6001 44.9 66.5001C44.7 66.5001 44.4 66.6001 44.2 66.9001ZM67.8 23.6001C67.9 23.7001 67.9 23.8001 68 23.9001C68.4 24.5001 68.8 25.1001 69.2 25.7001C69.6 26.3001 70.1 26.9001 70.5 27.6001C70.6 27.7001 70.6 27.8001 70.7 27.9001C70.8 28.1001 70.9 28.2001 71.1 28.2001C71.6 28.4001 72 28.5001 72.3 28.6001C72.7 28.3001 73.3 28.4001 73.6 28.8001C73.9 29.2001 73.8 29.8001 73.4 30.0001C73 30.3001 72.4 30.2001 72.2 29.8001L72.1 29.7001L71.6 29.5001C71.4 29.4001 71.1 29.4001 70.9 29.5001C70.4 29.8001 70.1 30.4001 70.1 31.0001C70.1 31.1001 70.1 31.2001 70.2 31.3001H70.3C70.9 31.9001 71.3 32.3001 72 32.1001C72.9 31.8001 73.7 31.5001 74.5 31.2001C74.6 31.1001 74.8 31.1001 75 31.1001C75.4 31.1001 75.7 31.3001 75.9 31.5001C76.5 32.1001 77 32.6001 77.6 33.1001C77.8 33.3001 78 33.4001 78.1 33.6001C78.4 33.0001 78.4 33.0001 78 32.4001C77.7 32.0001 77.4 31.6001 77.1 31.2001C76.9 31.0001 76.8 30.8001 76.6 30.6001C75.5 29.2001 74.1 28.0001 72.4 27.1001C72.2 27.0001 72 26.9001 71.6 26.7001C71.1 26.9001 70.6 26.7001 70.4 26.3001C70.2 25.8001 70.4 25.3001 70.8 25.1001C71.3 24.9001 71.8 25.1001 72 25.5001C72 25.5001 72 25.6001 72 25.7001C72.2 25.8001 72.3 25.8001 72.5 25.9001C73.3 26.2001 74 26.6001 74.6 27.1001C74.4 26.8001 74.1 26.5001 73.8 26.3001C73.2 25.9001 72.6 25.4001 72 25.0001L71.4 24.5001C69.7 23.1001 67.9 22.0001 66 21.0001C66.5 21.5001 66.9 22.2001 67.2 22.8001C67.5 23.1001 67.6 23.4001 67.8 23.6001ZM59.9 20.4001C60.3 20.8001 60.7 21.2001 61.3 21.7001C61.4 21.8001 61.5 21.9001 61.5 21.9001C61.8 22.3001 61.9 22.3001 62.8 22.2001H62.9C63.5 22.1001 64.1 22.0001 64.7 22.0001C64.8 22.0001 64.9 22.0001 65 22.0001C65.1 22.0001 65.2 22.0001 65.3 22.0001C65.3 21.7001 65.1 21.4001 64.8 21.2001L64.6 21.0001C64.1 20.2001 63.4 19.6001 62.5 19.2001C61 18.7001 59.4 18.4001 57.8 18.4001H57.7C57.8 18.5001 58 18.7001 58.2 18.9001C59 19.5001 59.4 20.0001 59.9 20.4001ZM80.8 47.7001C80.8 47.8001 80.7 48.0001 80.7 48.1001C80.6 48.5001 80.5 48.9001 80.3 49.3001C80.3 49.1001 80.2 49.0001 80 48.9001C79.9 48.9001 79.8 48.9001 79.8 48.9001C79.7 49.0001 79.7 49.1001 79.7 49.2001C79.7 49.7001 79.7 50.3001 79.6 50.8001C79.6 50.9001 79.5 51.0001 79.5 51.2001V51.3001C78.8 53.2001 76.8 54.3001 74.8 53.9001L74.9 53.2001C74.9 53.1001 74.9 53.0001 74.8 53.0001C74.7 52.9001 74.6 53.0001 74.5 53.0001C74.4 53.1001 74.3 53.3001 74.3 53.4001C74.1 54.0001 73.5 54.3001 72.9 54.2001C72.7 54.2001 72.5 54.2001 72.3 54.1001C71.9 54.1001 71.5 54.0001 71.1 53.9001C70.8 53.8001 70.5 53.6001 70.3 53.4001C70.1 53.2001 70 52.9001 70.2 52.6001V52.5001C70.2 52.4001 70 52.3001 69.9 52.3001H69.6C69.3 52.3001 69 52.4001 68.7 52.4001C68.4 52.5001 68.1 52.4001 67.9 52.1001C67.5 51.6001 67 51.1001 66.6 50.6001L66.1 50.0001C66.1 50.0001 66.2 50.0001 66.2 49.9001C66.4 49.8001 66.9 49.5001 67.5 49.2001C67.6 49.2001 67.7 49.2001 67.8 49.2001C68.2 49.2001 68.6 48.9001 68.7 48.5001C68.8 48.0001 68.5 47.5001 68 47.4001C67.5 47.3001 67 47.6001 66.9 48.1001L66.8 48.2001C66.6 48.3001 66.3 48.5001 66 48.6001C65.8 48.7001 65.7 48.7001 65.6 48.8001C65.4 48.9001 65.2 49.0001 65 48.9001C64.5 48.8001 64 48.5001 63.7 48.1001C63.2 47.6001 62.8 47.1001 62.4 46.5001C62.4 46.5001 62.4 46.4001 62.3 46.4001C62.1 46.1001 62.2 45.6001 62.5 45.4001C62.7 45.2001 62.9 44.9001 63.1 44.6001C63.6 44.6001 63.9 44.2001 63.9 43.7001C63.9 43.2001 63.5 42.8001 63 42.8001C62.5 42.8001 62.1 43.2001 62.1 43.7001C62.1 43.8001 62.1 44.0001 62.2 44.1001C62.1 44.2001 62 44.3001 62 44.4001C61.7 44.6001 61.3 44.8001 61 44.9001C60.5 45.0001 60 44.7001 59.9 44.2001C59.8 43.9001 59.7 43.6001 59.6 43.3001C59.6 43.2001 59.5 43.1001 59.5 43.0001C59.5 42.9001 59.5 42.8001 59.4 42.8001C59.5 42.7001 59.6 42.6001 59.6 42.5001C59.7 42.0001 59.5 41.5001 59 41.4001C58.5 41.2001 58 41.5001 57.9 42.0001C57.7 42.5001 58 43.0001 58.5 43.1001V43.2001C58.6 43.5001 58.6 43.8001 58.6 44.1001C58.6 44.1001 58.6 44.1001 58.6 44.2001C58.6 44.2001 58.6 44.2001 58.5 44.2001C57.9 44.1001 57.3 44.0001 56.7 43.8001C55.7 43.5001 54.7 43.1001 53.7 42.6001C53.5 42.5001 53.3 42.4001 53 42.3001C53 42.3001 53 42.3001 53 42.2001C53 42.1001 53 42.0001 53.1 42.0001C53.3 41.8001 53.6 41.5001 53.8 41.3001H53.9C54.1 41.3001 54.4 41.2001 54.5 41.0001C54.8 40.6001 54.8 40.0001 54.4 39.7001C54.2 39.5001 54 39.5001 53.7 39.5001C53.2 39.5001 52.8 40.0001 52.9 40.5001C52.8 40.6001 52.6 40.8001 52.5 40.9001C52.3 41.1001 52 41.4001 51.7 41.6001C51.6 41.6001 51.6 41.6001 51.5 41.6001C51.4 41.6001 51.4 41.6001 51.3 41.5001C51.2 41.5001 51.1 41.4001 51 41.4001L50.3 41.0001C49.7 40.7001 49.1 40.4001 48.5 40.1001C47.7 39.7001 47.1 39.4001 46.3 39.1001L46 39.2001C45.6 39.0001 45.4 38.9001 45.5 38.7001C45.6 38.5001 45.7 38.2001 45.7 38.0001C45.8 38.0001 45.9 37.9001 46 37.9001C46.4 37.6001 46.5 37.0001 46.2 36.6001C45.9 36.2001 45.3 36.1001 44.9 36.4001C44.5 36.7001 44.4 37.3001 44.7 37.7001C44.7 37.8001 44.6 37.9001 44.6 38.0001C44.6 38.1001 44.5 38.2001 44.4 38.4001C44.2 38.8001 43.8 38.8001 43.1 38.6001H42.9C42.7 38.6001 42.5 38.5001 42.2 38.5001C41.5 38.4001 40.6 38.2001 40.3 38.1001C39.8 38.0001 39.3 37.6001 39.1 37.1001C39 36.9001 38.8 36.6001 38.5 36.1001C38.3 35.5001 38.2 34.9001 38.3 34.3001C38.3 34.2001 38.3 34.1001 38.3 34.1001C38.4 34.1001 38.4 34.0001 38.5 34.0001C38.9 33.6001 38.9 33.1001 38.5 32.7001C38.1 32.4001 37.6 32.4001 37.2 32.7001C36.8 33.0001 36.9 33.6001 37.2 34.0001V34.1001C37.1 34.7001 37.1 35.3001 37 35.8001C37 36.1001 37 36.4001 37.2 36.6001C37.2 36.6001 37.3 36.7001 37.3 36.8001C37.5 37.3001 37.8 37.7001 38.2 38.2001L38.3 38.3001C38.5 38.6001 38.6 38.8001 38.4 39.0001C38.2 39.3001 38.1 39.6001 37.9 39.9001C37.8 40.1001 37.7 40.2001 37.6 40.4001C37.2 40.5001 36.9 40.9001 36.9 41.3001C36.9 41.8001 37.3 42.2001 37.8 42.2001C38.3 42.2001 38.7 41.8001 38.7 41.3001C38.7 41.2001 38.7 41.2001 38.7 41.1001C39 40.7001 39.3 40.3001 39.6 39.9001C40 39.5001 40.7 39.4001 41.2 39.6001C41.4 39.6001 41.6 39.7001 41.8 39.7001C43.6 40.0001 45.3 40.5001 47 41.1001C49 41.9001 51 42.9001 52.9 44.0001L53.4 44.3001C54.5 44.9001 54.5 44.9001 54.4 45.3001C54.4 45.4001 54.4 45.5001 54.4 45.6001C54.3 45.8001 54.3 45.9001 54.2 46.1001C54.2 46.2001 54.2 46.3001 54.1 46.4001C54 46.4001 53.9 46.5001 53.8 46.6001C53.4 46.9001 53.3 47.4001 53.6 47.8001C53.9 48.2001 54.5 48.3001 54.9 48.0001C55.3 47.7001 55.4 47.1001 55.1 46.7001V46.6001C55.2 46.3001 55.3 46.1001 55.3 45.8001L55.4 45.6001C55.6 45.1001 55.7 45.0001 57.6 45.6001C58.1 45.8001 58.6 45.9001 58.9 46.0001C59.8 46.2001 60.5 46.7001 61 47.4001C61.1 47.5001 61.2 47.7001 61.3 47.8001C61.8 48.4001 62.3 49.0001 62.8 49.7001C63 50.1001 63 50.5001 63 50.9001C63 51.1001 63 51.3001 63 51.5001V52.1001C62.8 52.3001 62.6 52.5001 62.6 52.8001C62.6 53.1001 62.7 53.3001 63 53.5001C63.4 53.8001 64 53.7001 64.3 53.3001C64.6 52.9001 64.5 52.3001 64.1 52.0001V51.9001C64.1 51.7001 64.1 51.4001 64.1 51.2001C64.1 51.1001 64.1 51.0001 64.1 50.9001C64.1 50.9001 64.2 50.8001 64.3 50.8001C64.4 50.8001 64.5 50.9001 64.6 51.0001L64.7 51.1001C64.9 51.3001 65 51.4001 65.2 51.6001C65.3 51.7001 65.4 51.8001 65.5 52.0001C66.1 52.6001 66.4 53.6001 66.1 54.4001C65.9 55.0001 65.8 55.6001 65.7 56.1001C65.6 56.6001 65.5 57.1001 65.4 57.6001C64.6 61.0001 62.6 63.2001 59.6 64.1001C55.8 65.5001 51.5 65.0001 48.1 62.9001L48 62.8001C48.5 62.4001 49 62.1001 49.5 62.0001C49.7 62.1001 49.9 62.2001 50.1 62.2001C50.3 62.2001 50.6 62.1001 50.7 61.9001C50.8 61.8001 50.8 61.7001 50.8 61.7001C51 61.2001 50.8 60.7001 50.3 60.5001C49.8 60.3001 49.3 60.5001 49.1 61.0001C48.7 61.1001 48.4 61.3001 48 61.4001L47.8 61.5001C47.5 61.7001 47.2 61.8001 46.9 61.9001H46.8C46.6 62.0001 46.3 62.0001 46 61.8001V61.9001C45.2 61.5001 44.4 61.3001 43.6 61.1001C41.4 60.5001 39.2 60.1001 36.9 59.8001C35.4 59.6001 34.2 59.6001 33.4 59.5001C33.1 59.5001 32.7 59.5001 32.3 59.5001C31.5 59.5001 30.7 59.5001 30.1 59.6001C29.1 59.7001 29.1 59.7001 28.7 58.0001V57.9001C28.6 57.6001 28.6 57.3001 28.5 56.9001C28.4 56.6001 28.4 56.4001 28.5 56.1001C28.5 55.9001 28.6 55.7001 28.8 55.6001C28.9 55.6001 29 55.6001 29.1 55.6001C29.3 55.7001 29.5 55.8001 29.6 55.8001L29.7 55.9001C30.2 56.1001 30.4 56.1001 30.7 55.7001C30.8 55.6001 30.9 55.5001 31 55.4001C31.1 55.3001 31.2 55.1001 31.4 54.9001L31.5 54.8001C31.6 54.8001 31.7 54.8001 31.9 54.7001C32.4 54.5001 32.6 54.0001 32.3 53.5001C32.1 53.1001 31.6 52.9001 31.1 53.1001C30.6 53.3001 30.5 53.8001 30.7 54.3001C30.5 54.5001 30.2 54.8001 30.1 54.9001C29.6 54.8001 29.1 54.6001 28.8 54.2001L28.4 54.0001C28.1 53.7001 27.8 53.4001 27.6 53.1001L27.5 53.0001C27.4 52.9001 27.2 52.7001 27 52.4001C27.1 52.3001 27.1 52.1001 27.1 52.0001C27.1 51.5001 26.7 51.1001 26.2 51.1001C25.7 51.1001 25.3 51.5001 25.3 52.0001C25.3 52.5001 25.7 52.9001 26.2 52.9001H26.3C26.6 53.3001 27 53.9001 27.2 54.3001C27.4 54.6001 27.5 54.9001 27.5 55.2001C27.4 55.4001 27.1 55.6001 26.9 55.6001H26.7C26.4 55.7001 26.1 55.8001 25.7 55.9001C25.6 55.8001 25.5 55.7001 25.4 55.7001C25 55.5001 24.4 55.7001 24.2 56.2001C24 56.7001 24.2 57.2001 24.7 57.4001C25.2 57.6001 25.7 57.4001 25.9 56.9001C26.1 56.9001 26.2 56.8001 26.3 56.8001C26.7 56.7001 26.7 56.7001 26.9 57.1001C27.4 58.0001 27.7 59.0001 27.7 60.0001V60.1001C27.7 60.4001 27.7 60.4001 27 60.9001C25.4 62.0001 23.3 62.2001 21.5 61.5001C20.6 61.2001 20 60.5001 19.7 59.7001C20.4 58.9001 20.4 58.9001 20.9 59.2001C21.1 59.3001 21.4 59.5001 21.7 59.6001C22.2 59.9001 22.7 60.1001 23.2 60.3001H23.3C23.3 60.4001 23.4 60.5001 23.5 60.6001C23.8 61.0001 24.4 61.0001 24.8 60.7001C25.2 60.4001 25.2 59.8001 24.9 59.4001C24.6 59.0001 24 59.0001 23.6 59.3001C20.8 58.0001 20.7 57.9001 20.3 56.8001C20.3 56.6001 20.2 56.5001 20.1 56.3001C20.2 56.2001 20.3 56.0001 20.3 55.9001C20.4 55.4001 20.1 54.9001 19.6 54.9001C19.1 54.8001 18.6 55.1001 18.6 55.6001C18.5 56.1001 18.8 56.6001 19.3 56.6001C19.3 56.7001 19.4 56.8001 19.4 56.8001C19.6 57.0001 19.6 57.2001 19.6 57.4001L19.5 57.5001C19.1 57.8001 19 57.9001 18.8 57.7001C18.6 57.5001 18.5 57.3001 18.4 57.1001C17.5 55.1001 17.1 52.9001 17.3 50.7001V50.6001C17.3 50.4001 17.3 50.3001 17.4 50.1001C17.5 50.1001 17.6 50.1001 17.7 50.1001C17.8 50.1001 18 50.1001 18.2 50.1001C18.6 50.1001 19 50.2001 19.4 50.3001C19.6 50.4001 19.8 50.6001 19.8 50.9001C19.8 51.0001 19.9 51.1001 19.9 51.2001C19.8 51.3001 19.7 51.4001 19.7 51.6001C19.6 52.1001 19.9 52.6001 20.4 52.7001C20.9 52.8001 21.4 52.5001 21.5 52.0001C21.6 51.5001 21.3 51.0001 20.8 50.9001C20.8 50.8001 20.8 50.7001 20.7 50.6001V50.5001C20.4 49.7001 20.5 48.8001 21 48.2001C21.2 48.2001 21.3 48.1001 21.4 48.0001C21.8 47.7001 21.9 47.1001 21.6 46.7001C21.3 46.3001 20.7 46.2001 20.4 46.5001C20 46.8001 19.9 47.4001 20.2 47.8001C20.1 47.9001 20 48.1001 19.9 48.3001L19.7 48.6001C19.4 48.5001 18.9 48.4001 18.5 48.3001C18 48.2001 17.4 48.0001 16.9 47.8001C16.5 47.6001 16.5 47.4001 16.5 46.8001V46.7001C16.5 45.2001 16.7 43.7001 17.3 42.2001C17.4 41.9001 17.4 41.9001 17.7 42.0001C18.4 42.1001 19 42.6001 19.3 43.2001C19.6 43.5001 19.9 43.7001 20.3 43.7001C21 43.8001 21.7 43.9001 22.4 44.1001C22.6 44.1001 22.8 44.2001 23 44.2001L23.6 44.3001C23.8 44.3001 23.9 44.4001 24 44.4001C24.1 44.4001 24.2 44.5001 24.3 44.5001C24.5 44.5001 24.5 44.5001 24.6 45.0001C24.7 45.4001 24.7 45.8001 24.8 46.0001V46.1001C24.7 46.3001 24.6 46.4001 24.6 46.6001C24.6 46.9001 24.8 47.2001 25 47.4001C25.4 47.7001 26 47.5001 26.2 47.1001C26.5 46.7001 26.3 46.1001 25.9 45.9001C25.9 45.8001 25.9 45.8001 25.9 45.7001C25.7 45.3001 25.7 44.7001 25.9 44.3001L26 44.2001C27.2 43.2001 28.6 42.4001 30.1 42.0001C30.9 41.8001 31.7 42.0001 32.3 42.6001C32.6 43.0001 32.9 43.4001 33.2 43.8001C33.5 44.2001 33.8 44.6001 34.1 45.0001C34.2 45.2001 34.3 45.3001 34.5 45.5001C34.6 45.7001 34.8 45.9001 34.9 46.0001C35.3 46.3001 35.3 46.8001 35.1 47.2001C35 48.0001 34.5 48.6001 33.8 48.8001C33.3 48.9001 32.9 49.0001 32.4 49.1001C32.2 49.1001 31.9 49.2001 31.7 49.3001C31.5 49.2001 31.3 49.1001 31.1 49.1001C30.8 49.1001 30.5 49.3001 30.3 49.6001C30.1 50.0001 30.2 50.6001 30.6 50.8001C31 51.0001 31.6 50.9001 31.8 50.4001C34.4 49.9001 34.8 50.0001 35.6 50.7001L35.7 50.8001V50.9001C35.7 51.4001 36.1 51.8001 36.6 51.8001C37.1 51.8001 37.5 51.4001 37.5 50.9001C37.5 50.4001 37.1 50.0001 36.6 50.0001L36.4 49.8001V49.7001L36.3 49.6001C36 49.4001 35.8 48.9001 36 48.6001C36.1 48.5001 36.1 48.4001 36.1 48.3001C36.1 48.2001 36.1 48.1001 36.2 48.1001C36.6 47.3001 36.7 47.1001 37.3 47.2001H37.5C38.2 47.3001 38.9 47.5001 39.6 47.7001L40.3 47.9001C41.5 48.2001 42.5 48.5001 43.9 48.9001C44.1 48.9001 44.6 49.1001 44.8 49.2001C44.9 49.2001 45 49.3001 45.1 49.4001C45.1 49.6001 45 49.8001 44.8 49.9001C44.7 50.0001 44.6 50.1001 44.5 50.2001C44.5 50.2001 44.4 50.2001 44.3 50.2001C43.8 50.2001 43.4 50.6001 43.4 51.1001C43.4 51.6001 43.8 52.0001 44.3 52.0001C44.8 52.0001 45.2 51.6001 45.2 51.1001V51.0001L45.3 50.9001L45.5 50.7001C45.6 50.6001 45.8 50.4001 45.9 50.3001C46 50.2001 46 50.2001 46 50.1001C46.1 50.0001 46.3 49.9001 46.5 50.0001C49.3 51.1001 52.2 52.3001 54.6 53.5001C55.1 53.7001 56.6 54.5001 57.7 55.1001C57.8 55.2001 58 55.2001 58.1 55.3001C58.5 55.4001 58.8 55.8001 58.8 56.2001C58.9 56.4001 59 56.6001 59 56.7001V57.3001C59 57.4001 59 57.4001 59 57.5001C59 57.7001 59.1 57.9001 59.2 58.1001C59.5 58.5001 60.1 58.5001 60.5 58.2001C60.9 57.9001 60.9 57.3001 60.6 56.9001L60.2 56.7001C60.1 56.6001 60.1 56.4001 60 56.2001C59.9 56.0001 59.8 55.8001 59.7 55.5001C59.6 55.1001 59.6 55.1001 60 54.8001C60.1 54.8001 60.1 54.7001 60.2 54.7001C60.3 54.8001 60.5 54.8001 60.6 54.8001C61.1 54.8001 61.5 54.4001 61.5 53.9001C61.5 53.4001 61.1 53.0001 60.6 53.0001C60.1 53.0001 59.7 53.4001 59.7 53.9001C59.6 53.9001 59.4 54.0001 59.3 54.0001C58.8 54.3001 58.1 54.2001 57.7 53.8001C57.1 53.4001 55.5 52.6001 55.2 52.5001C54 52.0001 52.8 51.5001 52 51.1001C51.4 50.8001 51 50.7001 50.6 50.6001C50.2 50.4001 49.8 50.3001 49.2 50.0001C48.9 49.9001 48.6 49.8001 48.4 49.5001C48.4 49.3001 48.4 49.0001 48.5 48.8001C48.5 48.6001 48.5 48.5001 48.6 48.3001C49 48.2001 49.2 47.8001 49.2 47.5001C49.2 47.0001 48.8 46.6001 48.3 46.6001C47.8 46.6001 47.4 47.0001 47.4 47.5001C47.4 47.7001 47.5 48.0001 47.7 48.1001C47.7 48.2001 47.6 48.3001 47.6 48.3001C47.5 48.7001 47.4 48.9001 47.2 48.8001C46.2 48.6001 45.3 48.3001 44.3 48.0001C43.8 47.8001 43.2 47.7001 42.7 47.5001C42.3 47.4001 41.8 47.3001 41.4 47.2001H41.3C40 46.9001 38.7 46.5001 37.4 46.1001C37 46.0001 36.6 45.7001 36.2 45.4001C35 44.3001 34 43.0001 33.1 41.5001C33 41.3001 32.9 41.1001 32.8 41.0001C32.4 40.6001 32.3 40.0001 32.4 39.4001V39.0001C32.4 38.3001 32.5 37.5001 32.6 36.8001C32.7 36.8001 32.8 36.7001 32.8 36.6001C33.1 36.3001 33.2 35.7001 32.8 35.3001C32.4 34.9001 31.9 34.9001 31.5 35.3001C31.2 35.6001 31.2 36.2001 31.5 36.6001C31.4 37.1001 31.3 37.7001 31.2 38.3001C31.1 39.0001 31 39.5001 30.9 40.0001C30.9 40.3001 30.7 40.6001 30.3 40.7001C30.2 40.7001 30.1 40.8001 30 40.9001C29.2 41.3001 28.4 41.7001 27.6 42.1001C26.9 42.5001 26.1 42.8001 25.4 43.2001C25.3 43.3001 25.1 43.3001 24.9 43.3001C24.3 43.2001 23.8 43.1001 23.2 43.1001C22.6 43.0001 22 43.0001 21.3 42.9001C21 42.9001 21 42.8001 21.1 42.6001C21.1 42.4001 21.2 42.3001 21.2 42.1001L21.3 41.9001C21.4 41.9001 21.5 41.8001 21.6 41.7001C22 41.4001 22 40.8001 21.7 40.4001C21.4 40.0001 20.8 40.0001 20.4 40.3001C20 40.5001 20 41.0001 20.3 41.4001L20.2 41.7001C20.2 41.8001 20.1 41.9001 20.1 42.0001C19.5 41.7001 19 41.1001 18.9 40.5001C18.8 40.2001 18.9 39.8001 18.9 39.5001C19.1 38.7001 19.3 37.9001 19.6 37.1001C19.7 36.6001 20.1 36.2001 20.5 36.0001C21.2 36.0001 21.8 36.2001 22.3 36.6001C22.9 37.0001 22.9 37.0001 23 37.3001V37.4001C23 37.8001 23 38.2001 23 38.6001C22.8 38.8001 22.6 39.0001 22.6 39.3001C22.6 39.8001 23 40.2001 23.5 40.2001C24 40.2001 24.4 39.8001 24.4 39.3001C24.4 39.0001 24.3 38.8001 24 38.6001C23.9 38.2001 24 37.8001 24.1 37.5001C24.3 37.4001 24.6 37.4001 24.8 37.5001C25 37.5001 25.2 37.6001 25.4 37.6001C25.6 37.6001 25.7 37.6001 25.9 37.6001C26 37.6001 26.1 37.6001 26.1 37.6001C26.4 37.6001 26.7 37.7001 26.7 38.0001C26.8 38.2001 26.8 38.3001 26.9 38.5001V38.6001C27 38.8001 27 38.9001 27 39.0001C26.9 39.5001 27.2 40.0001 27.7 40.0001C28.2 40.1001 28.7 39.8001 28.7 39.3001C28.8 38.8001 28.5 38.3001 28 38.2001C27.9 37.9001 27.8 37.5001 27.7 37.2001C27.7 35.7001 28 34.3001 28.6 33.0001C29.5 31.2001 30.8 29.7001 32.5 28.6001L32.8 28.4001C33 28.2001 33 28.2001 33.6 28.3001L34.2 28.4001C34.7 28.5001 35.1 28.5001 35.5 28.6001C35.5 28.8001 35.4 28.9001 35.4 29.1001C35.3 29.1001 35.2 29.2001 35.1 29.3001C34.7 29.6001 34.7 30.2001 35 30.6001C35.3 31.0001 35.9 31.0001 36.3 30.7001C36.7 30.4001 36.7 29.8001 36.4 29.4001C36.5 29.2001 36.6 29.0001 36.8 28.8001C38 28.6001 39.3 28.6001 40.6 28.6001H40.7C41.1 28.6001 41.1 28.6001 41.2 28.9001C41.2 29.0001 41.3 29.1001 41.3 29.2001C41.5 29.5001 41.6 29.9001 41.8 30.4001C41.9 30.7001 42.1 31.1001 42.3 31.5001C42.3 31.6001 42.2 31.7001 42.1 31.8001C42 32.0001 41.9 32.3001 41.8 32.4001C41.7 32.4001 41.5 32.5001 41.4 32.5001C41 32.8001 40.9 33.4001 41.2 33.7001C41.5 34.1001 42.1 34.2001 42.4 33.9001C42.8 33.6001 42.9 33.0001 42.6 32.6001V32.5001C42.7 32.1001 43.1 31.8001 43.5 31.8001C43.7 31.8001 43.9 31.8001 44 31.9001C44.1 31.9001 44.2 31.9001 44.3 32.0001C44.4 32.3001 44.8 32.6001 45.1 32.6001C45.6 32.6001 46 32.2001 46 31.7001C46 31.2001 45.6 30.8001 45.1 30.8001C44.9 30.8001 44.6 30.9001 44.4 31.1001C44.3 31.1001 44.3 31.1001 44.2 31.1001C44.1 31.1001 44 31.1001 43.9 31.1001C43.7 31.1001 43.4 31.0001 43.3 30.8001L43 30.3001C42.5 29.5001 42.3 29.2001 41.6 28.0001C41.3 27.4001 41.1 26.8001 41 26.2001C41 26.2001 41.1 26.1001 41.1 26.0001C41.3 25.6001 41.2 25.0001 40.7 24.8001C40.3 24.6001 39.7 24.7001 39.5 25.2001C39.3 25.6001 39.4 26.2001 39.9 26.4001C39.9 26.5001 40 26.6001 40 26.8001V26.9001C40.1 27.1001 40.1 27.3001 40.1 27.4001C39.9 27.5001 39.6 27.5001 39.3 27.5001H38.9H38C36.7 27.6001 35.3 27.5001 34 27.3001H33.8C33.3 27.3001 32.8 27.1001 32.5 26.6001C32.5 26.5001 32.4 26.5001 32.4 26.4001C32.4 26.3001 32.5 26.2001 32.5 26.2001C32.6 25.7001 32.3 25.2001 31.8 25.1001C31.3 25.0001 30.8 25.3001 30.7 25.8001C30.6 26.3001 30.9 26.8001 31.4 26.9001L31.7 27.5001L31.3 27.9001C30.4 28.6001 29.6 29.3001 28.9 30.1001C27.4 31.7001 26.8 34.3001 26.4 36.1001V36.2001C26.3 36.5001 26.3 36.5001 26.2 36.6001C25.3 36.7001 24.4 36.6001 23.7 36.2001C22.9 35.9001 22.9 35.8001 23.4 34.3001V34.2001C23.4 34.1001 23.5 34.0001 23.5 33.9001C23.9 33.8001 24.3 33.4001 24.3 33.0001C24.3 32.5001 23.9 32.1001 23.4 32.1001C22.9 32.1001 22.5 32.5001 22.5 33.0001C22.5 33.2001 22.5 33.3001 22.6 33.5001C22.5 33.7001 22.4 33.9001 22.3 34.1001C22.2 34.3001 22.1 34.5001 22.1 34.6001C22 34.8001 21.8 35.0001 21.5 35.0001C21.2 35.0001 21 34.9001 20.8 34.7001C20.7 34.4001 20.7 34.1001 20.9 33.9001C21.9 32.1001 23.4 30.0001 25.7 29.3001C25.8 29.2001 25.9 29.3001 26 29.3001C26 29.4001 26 29.5001 26 29.6001C25.9 29.8001 25.9 30.1001 25.8 30.3001C25.7 30.3001 25.5 30.4001 25.4 30.5001C25 30.8001 24.9 31.4001 25.2 31.8001C25.5 32.2001 26 32.3001 26.5 32.0001C26.9 31.7001 27 31.1001 26.7 30.7001C26.7 30.6001 26.8 30.5001 26.9 30.3001C27 30.0001 27.2 29.8001 27.3 29.6001C27.5 29.2001 27.8 28.9001 28.2 28.8001C28.3 28.9001 28.4 29.0001 28.5 29.0001C29 29.1001 29.5 28.9001 29.6 28.4001C29.8 27.9001 29.5 27.4001 29 27.3001C28.5 27.2001 28 27.4001 27.9 27.9001C27.8 27.9001 27.7 27.9001 27.6 28.0001C27.4 28.1001 27.2 28.1001 27.1 28.1001C27 27.8001 27.1 27.6001 27.5 27.2001L28.1 26.7001C28.2 26.6001 28.4 26.5001 28.5 26.4001C29 25.9001 29.5 25.5001 30 25.2001C30.3 25.0001 30.5 24.8001 30.8 24.7001C31.5 24.2001 32.3 23.7001 33 23.4001L33.6 23.1001C34.4 22.5001 35.4 22.6001 36.1 23.2001C36.3 23.3001 36.6 23.5001 36.8 23.7001C36.8 23.8001 36.8 23.8001 36.8 23.9001C36.8 24.4001 37.2 24.8001 37.7 24.8001C38.2 24.8001 38.6 24.4001 38.6 23.9001C38.6 23.4001 38.2 23.0001 37.7 23.0001H37.6L36.1 22.0001C36.3 21.8001 36.4 21.7001 36.6 21.5001C37.8 20.4001 39.4 20.0001 40.9 20.2001C41.6 20.3001 42.1 20.6001 42.5 21.2001C43.2 22.1001 43.8 23.1001 44.3 24.1001C44.8 24.9001 45.3 25.8001 45.9 26.6001V26.7001C45.9 26.8001 45.8 26.8001 45.7 26.9001C45.4 27.0001 45.1 27.1001 44.8 27.3001H44.7C44.5 27.2001 44.2 27.2001 44 27.3001C43.6 27.5001 43.4 28.1001 43.6 28.5001C43.7 28.7001 43.9 28.9001 44.1 29.0001C44.6 29.2001 45.1 28.9001 45.2 28.5001C45.2 28.5001 45.2 28.5001 45.2 28.4001C45.4 28.4001 45.6 28.3001 45.8 28.2001C46.1 28.1001 46.4 28.0001 46.8 27.9001C46.8 27.9001 46.9 27.9001 46.9 28.0001C47.1 28.3001 47.4 28.5001 47.6 28.8001C48 29.2001 48.4 29.7001 48.7 30.2001C48.9 30.5001 49.1 30.7001 49.3 30.9001C49.3 30.9001 49.3 31.0001 49.4 31.0001C49.5 31.1001 49.5 31.3001 49.4 31.4001C49.1 31.6001 48.8 31.9001 48.6 32.2001C48.1 32.2001 47.8 32.6001 47.8 33.1001C47.8 33.6001 48.2 34.0001 48.7 34.0001C49.2 34.0001 49.6 33.6001 49.6 33.1001C49.6 33.0001 49.6 33.0001 49.6 32.9001C49.7 32.8001 49.8 32.8001 49.9 32.7001C50.1 32.6001 50.2 32.4001 50.4 32.3001C50.4 32.3001 50.4 32.3001 50.5 32.3001C50.6 32.3001 50.6 32.2001 50.7 32.2001C50.8 32.2001 50.8 32.2001 50.9 32.2001C51 32.2001 51.2 32.2001 51.3 32.3001C51.4 32.3001 51.4 32.4001 51.5 32.4001C51.9 32.6001 52.2 32.9001 52.4 33.3001C52.4 33.7001 52.7 34.1001 53.1 34.2001C53.6 34.3001 54.1 34.1001 54.2 33.6001C54.3 33.1001 54.1 32.6001 53.6 32.5001C53.2 32.2001 52.9 32.0001 52.5 31.7001C51.4 31.0001 50.5 30.4001 50.4 29.6001C50.5 29.6001 50.5 29.5001 50.6 29.5001C50.8 29.4001 51 29.4001 51.2 29.3001C51.3 29.3001 51.4 29.2001 51.5 29.2001C51.6 29.3001 51.8 29.3001 51.9 29.3001C52.3 29.3001 52.6 29.1001 52.7 28.7001C52.9 28.2001 52.6 27.7001 52.2 27.5001C51.7 27.3001 51.2 27.6001 51 28.0001C50.9 28.0001 50.7 28.1001 50.6 28.1001C50.5 28.1001 50.4 28.2001 50.2 28.2001C49.8 28.3001 49.7 28.3001 49.3 27.9001C49.1 27.7001 49 27.7001 48.9 27.6001C48.8 27.5001 48.7 27.4001 48.6 27.4001L48.4 27.2001C47.5 26.3001 46.7 25.2001 46.1 24.0001C45.8 23.4001 45.8 23.4001 46.2 22.9001C46.2 22.9001 46.4 22.7001 46.5 22.6001C46.7 22.5001 46.8 22.3001 46.9 22.2001C47 22.1001 47.1 22.0001 47.3 21.9001C47.4 21.9001 47.5 22.0001 47.6 22.0001C48.1 22.0001 48.4 21.7001 48.5 21.2001C48.6 20.7001 48.2 20.2001 47.7 20.2001C47.2 20.1001 46.7 20.5001 46.7 21.0001C46.4 21.1001 46.2 21.3001 45.9 21.5001C45.7 21.6001 45.4 21.8001 45.2 22.0001C45.1 22.1001 45 22.2001 44.9 22.2001C44.4 21.7001 44.3 21.0001 44.5 20.4001C45 19.6001 45.8 19.1001 46.7 18.9001L47 18.8001C48.6 18.1001 50.4 18.0001 52.2 18.3001C52.7 18.4001 53.2 18.5001 53.7 18.7001C54.3 18.9001 54.8 19.0001 55.4 19.1001C56.1 19.3001 56.8 19.7001 57.3 20.3001C57.2 20.3001 57.1 20.4001 57 20.4001L56.8 20.5001L56.6 20.6001C56.4 20.5001 56.2 20.4001 56 20.4001C55.6 20.4001 55.3 20.6001 55.2 21.0001C55 21.5001 55.3 22.0001 55.8 22.1001C56.3 22.3001 56.8 22.0001 56.9 21.5001C57.2 21.4001 57.5 21.3001 57.8 21.2001C57.8 21.2001 57.9 21.2001 58 21.2001C58.1 21.3001 58.2 21.3001 58.3 21.4001C58.8 22.0001 59.2 22.4001 59.5 22.6001C59.9 23.0001 60.2 23.3001 60.8 24.1001C60.9 24.5001 60.8 24.9001 60.6 25.2001L60.5 25.4001C60.2 26.1001 59.8 26.8001 59.4 27.5001C59.1 28.0001 59.1 28.0001 58.5 27.8001H58.3C57.8 27.6001 57.2 27.4001 56.7 27.2001H56.6C56.4 27.1001 56.2 26.9001 56 26.7001C55.3 25.6001 54.6 24.5001 53.7 23.1001C53.4 22.7001 53.3 22.2001 53.5 21.8001C53.5 21.6001 53.6 21.4001 53.6 21.3001C53.9 21.1001 54.1 20.8001 54.1 20.5001C54.1 20.0001 53.7 19.6001 53.2 19.6001C52.7 19.6001 52.3 20.0001 52.3 20.5001C52.3 20.7001 52.4 20.9001 52.5 21.0001V21.1001C52.5 21.2001 52.5 21.3001 52.4 21.4001C52.4 21.5001 52.3 21.6001 52.3 21.7001C52.2 22.1001 52.2 22.2001 51.9 22.2001C51.7 22.2001 51.4 22.2001 51.2 22.2001C51 22.2001 50.7 22.2001 50.5 22.2001C50.5 22.2001 50.5 22.2001 50.4 22.1001C50 21.8001 49.5 21.8001 49.1 22.1001C48.8 22.5001 48.8 23.0001 49.1 23.4001C49.5 23.7001 50 23.7001 50.4 23.4001C50.5 23.4001 50.7 23.4001 51 23.4001C51.2 23.4001 51.4 23.4001 51.5 23.4001C52.1 23.3001 52.6 23.7001 52.7 24.3001C52.8 24.5001 52.9 24.7001 53.1 24.9001C53.2 25.1001 53.3 25.2001 53.5 25.4001C54 26.0001 54.4 26.8001 54.6 27.6001C54.6 27.9001 54.5 28.1001 54.5 28.4001C54.4 28.4001 54.3 28.5001 54.2 28.5001C53.8 28.8001 53.7 29.4001 54 29.7001C54.3 30.1001 54.9 30.2001 55.3 29.9001C55.7 29.6001 55.8 29.1001 55.5 28.7001C55.6 28.5001 55.7 28.4001 55.8 28.3001C56.4 28.5001 57 28.7001 57.6 29.1001C58.3 29.5001 58.4 29.6001 58.4 30.1001C58.7 32.2001 58.2 34.3001 57.2 36.1001C57.1 36.2001 57.1 36.3001 57 36.4001C56.9 36.6001 56.8 36.8001 56.7 37.0001C56.3 37.3001 55.8 37.4001 55.3 37.2001C55.1 37.2001 54.9 37.2001 54.8 37.2001C54.3 37.2001 54 37.2001 53.8 37.2001C53.6 37.0001 53.4 37.0001 53.2 37.0001C52.7 37.0001 52.3 37.4001 52.3 37.9001C52.3 38.4001 52.7 38.8001 53.2 38.8001C53.4 38.8001 53.6 38.7001 53.8 38.6001C54 38.6001 54.2 38.6001 54.4 38.6001H54.6C55.2 38.6001 56.9 38.6001 57.3 39.2001C57.4 39.4001 57.5 39.5001 57.6 39.6001C57.6 39.7001 57.6 39.7001 57.6 39.8001C57.6 40.2001 57.9 40.6001 58.4 40.7001C58.9 40.8001 59.4 40.4001 59.4 39.9001C59.5 39.4001 59.1 38.9001 58.6 38.9001C58.5 38.7001 58.3 38.5001 58.1 38.2001C57.8 37.9001 57.8 37.9001 58 37.5001C58.1 37.3001 58.2 37.2001 58.2 37.1001C58.2 37.0001 58.3 37.0001 58.4 36.7001C58.4 36.7001 58.4 36.7001 58.4 36.6001C58.5 36.3001 58.8 36.2001 59.1 36.3001C61.7 37.1001 64.2 38.0001 66.6 39.1001C67.2 39.2001 67.6 39.7001 67.8 40.2001C67.8 40.3001 67.8 40.4001 67.9 40.6001V40.7001C68 41.1001 68.1 41.5001 68.1 41.9001C68.1 42.1001 68.1 42.2001 68.1 42.4001C68.2 42.8001 68.2 43.3001 68.1 43.7001C67.8 44.0001 67.4 44.2001 67.1 44.4001C66.6 44.3001 66.2 44.6001 66.1 45.0001C66 45.5001 66.3 46.0001 66.7 46.1001C67.2 46.2001 67.7 45.9001 67.8 45.5001C67.9 45.4001 68 45.3001 68.2 45.2001C68.6 45.0001 69 45.0001 69.4 45.2001H69.6C70.1 45.3001 70.7 45.5001 71.2 45.6001H71.3C71.7 45.7001 71.8 45.8001 71.8 46.1001C71.8 46.4001 71.8 46.7001 71.8 47.0001C71.7 47.0001 71.6 47.1001 71.5 47.2001C71.1 47.5001 71.1 48.1001 71.5 48.5001C71.8 48.9001 72.4 48.9001 72.8 48.5001C73.2 48.2001 73.2 47.6001 72.8 47.2001C72.8 47.1001 72.8 47.1001 72.8 47.0001C72.8 46.8001 72.9 46.5001 73 46.3001C73.1 45.8001 73.4 45.3001 73.7 44.9001L73.8 44.8001C73.9 44.6001 74.2 44.3001 74.4 44.0001C74.5 43.9001 74.6 43.8001 74.7 43.6001C75.2 43.6001 75.5 43.2001 75.5 42.7001C75.5 42.2001 75.1 41.8001 74.6 41.8001C74.1 41.8001 73.7 42.2001 73.7 42.7001C73.7 42.8001 73.7 42.8001 73.7 42.9001C73.6 43.0001 73.5 43.2001 73.3 43.4001V43.5001C73.1 43.8001 72.9 44.1001 72.8 44.3001C72.7 44.3001 72.7 44.4001 72.7 44.4001C72.5 44.6001 72.5 44.6001 72.3 44.5001L71.9 44.4001C71.3 44.2001 70.6 44.0001 69.9 43.8001C69.8 43.8001 69.7 43.6001 69.6 43.5001C69.1 42.3001 69 41.0001 69.1 39.7001C69.1 39.3001 69.3 39.2001 69.9 39.0001C70.1 38.9001 70.3 38.9001 70.5 38.9001C71 39.1001 71.5 38.9001 71.7 38.4001C71.9 37.9001 71.7 37.4001 71.2 37.2001C70.7 37.0001 70.2 37.2001 70 37.7001C69.7 37.8001 69.5 37.9001 69.2 37.9001C68.6 38.1001 68 38.1001 67.4 37.9001C66.2 37.5001 65 37.0001 63.8 36.5001C63 36.2001 62.2 35.8001 61.2 35.4001L61.1 35.3001C60.7 35.1001 60 34.9001 59.8 34.8001C59.6 34.7001 59.5 34.5001 59.5 34.3001C59.5 32.8001 59.6 31.3001 59.8 29.8001C59.8 29.5001 59.9 29.2001 60.1 29.0001C60.4 28.5001 60.6 28.0001 60.8 27.5001C61.1 26.8001 61.5 26.1001 61.9 25.4001C62.8 23.9001 63.1 23.9001 64.1 23.8001H64.4C64.7 23.8001 64.9 23.8001 65.1 23.7001C65.5 23.6001 65.9 23.6001 66.2 23.8001C66.6 24.1001 66.9 24.6001 67.1 25.1001V25.2001C67 25.2001 66.8 25.2001 66.7 25.2001C66.6 25.2001 66.5 25.2001 66.4 25.2001H66.2C66.2 25.1001 66.1 25.1001 66.1 25.0001C65.7 24.7001 65.2 24.7001 64.8 25.0001C64.5 25.4001 64.5 25.9001 64.8 26.3001C65.2 26.6001 65.7 26.6001 66.1 26.2001C66.3 26.2001 66.4 26.2001 66.6 26.2001C66.7 26.2001 66.9 26.2001 67 26.2001H67.1C67.6 26.2001 67.6 26.2001 67.7 26.3001L67.9 26.6001C68.4 27.2001 68.9 27.9001 69.2 28.6001V28.7001C69.4 28.9001 69.4 29.2001 69.2 29.5001C69 30.0001 68.8 30.5001 68.5 31.0001C68.4 31.3001 68.3 31.3001 68 31.3001C67.7 31.3001 67.4 31.3001 67.2 31.3001C66.6 31.3001 66.1 31.1001 65.5 30.9001C65.4 30.5001 65.3 30.2001 65.1 29.9001C65.2 29.8001 65.2 29.6001 65.2 29.4001C65.2 29.0001 64.9 28.6001 64.5 28.5001C64 28.4001 63.5 28.6001 63.4 29.1001C63.3 29.6001 63.6 30.1001 64 30.2001C64 30.3001 64 30.3001 64.1 30.4001C64.1 30.5001 64.1 30.6001 64.2 30.6001C64.3 30.8001 64.4 31.1001 64.4 31.3001C64.5 31.7001 64.4 32.2001 64.3 32.6001L64.2 32.9001C64.2 33.0001 64.1 33.1001 64.1 33.1001C64 33.1001 63.9 33.2001 63.9 33.2001C63.5 33.5001 63.4 34.0001 63.6 34.4001C63.9 34.8001 64.4 34.9001 64.8 34.7001C65.2 34.4001 65.3 33.9001 65.1 33.5001C65.2 33.3001 65.2 33.1001 65.3 32.8001L65.4 32.4001C65.4 32.2001 65.5 32.2001 66 32.3001C67.6 32.5001 69.1 33.1001 70.4 34.1001C70.5 34.3001 70.6 34.4001 70.7 34.6001C70.8 34.7001 70.9 34.9001 70.9 35.0001C70.8 35.1001 70.8 35.3001 70.8 35.4001C70.8 35.8001 71.1 36.2001 71.6 36.3001C72.1 36.4001 72.5 36.1001 72.6 35.6001C72.7 35.1001 72.4 34.6001 71.9 34.6001C71.8 34.4001 71.8 34.2001 71.7 34.0001C72.2 33.7001 72.7 33.4001 73.3 33.3001C74 33.1001 74.7 33.3001 75.2 33.8001C75.5 34.1001 75.8 34.4001 76.1 34.6001C76.5 34.9001 76.9 35.4001 77.2 35.8001C77.4 36.3001 77.5 36.8001 77.5 37.3001C77.4 37.4001 77.4 37.4001 77.3 37.5001C77 37.9001 77.2 38.5001 77.6 38.7001C78 39.0001 78.6 38.8001 78.8 38.4001C79.1 38.0001 78.9 37.4001 78.5 37.2001C78.5 37.1001 78.5 36.9001 78.4 36.8001V36.7001V36.6001C78.4 36.2001 78.4 35.9001 78.5 35.5001C78.5 35.4001 78.5 35.4001 78.6 35.3001C78.6 35.3001 78.7 35.3001 78.7 35.4001C78.9 35.6001 79.1 35.8001 79.3 36.1001C80 37.5001 80.4 39.1001 80.5 40.6001C80.5 41.1001 80.6 41.6001 80.6 42.0001C80.6 42.5001 80.6 43.0001 80.7 43.6001C80.7 43.9001 80.8 44.2001 80.8 44.5001C81 45.2001 81 46.4001 80.8 47.7001ZM58.1 58.9001C58 58.4001 57.5 58.1001 57 58.2001C56.5 58.3001 56.2 58.8001 56.4 59.3001C56.3 59.4001 56.1 59.5001 56 59.7001C55.8 59.7001 55.6 59.6001 55.4 59.4001C55.3 59.4001 55.2 59.3001 55.1 59.3001C53.6 58.5001 52.5 57.8001 51.6 57.2001C51.1 57.1001 50.9 56.6001 50.9 56.2001C51 56.1001 51.1 56.0001 51.2 55.9001C51.4 55.5001 51.3 54.9001 50.8 54.7001C50.6 54.6001 50.3 54.6001 50.1 54.6001C49.9 54.7001 49.7 54.8001 49.6 55.0001C49.4 55.4001 49.5 56.0001 50 56.2001C50 56.3001 50.1 56.5001 50.1 56.7001C47.2 56.2001 44.5 55.4001 41.8 54.2001L41.7 54.1001C41.4 54.0001 41.4 54.0001 41.1 53.0001C41.1 52.9001 41 52.8001 41 52.7001C41.1 52.6001 41.1 52.5001 41.2 52.4001C41.4 51.9001 41.2 51.4001 40.7 51.2001C40.2 51.0001 39.7 51.2001 39.5 51.7001C39.3 52.2001 39.5 52.7001 40 52.9001C40 53.0001 40.1 53.1001 40.1 53.3001C40.3 53.9001 40.3 54.0001 40 54.3001C40 54.3001 39.9 54.4001 39.8 54.4001C39.6 54.3001 39.3 54.2001 39 54.3001C38.5 54.5001 38.3 55.0001 38.4 55.4001C38.5 55.6001 38.6 55.8001 38.8 55.9001C39 56.0001 39.3 56.0001 39.5 56.0001C39.8 55.9001 40.1 55.6001 40.1 55.2001L40.4 55.1001C40.9 54.9001 40.9 54.9001 41.7 55.3001H41.8C42.5 55.6001 43.3 55.9001 44.1 56.2001C43.9 56.5001 43.7 56.7001 43.4 56.9001C42.9 56.7001 42.4 56.9001 42.2 57.4001C42 57.9001 42.2 58.4001 42.7 58.6001C42.9 58.7001 43.2 58.7001 43.4 58.7001C43.8 58.6001 44 58.3001 44 57.9001L44.4 57.6001C44.6 57.4001 44.9 57.2001 45.2 57.0001H45.3C45.4 56.9001 45.6 56.9001 45.7 56.9001H45.8H45.9C47.1 57.3001 48.3 57.6001 49.6 57.8001C49.8 57.8001 50 57.9001 50.2 57.9001C50.4 57.9001 50.7 58.0001 50.9 58.1001C51.9 58.7001 52.8 59.2001 53.7 59.7001L54.6 60.2001C55 60.3001 55.3 60.6001 55.5 60.9001C55.5 61.1001 55.5 61.3001 55.6 61.5001C55.5 61.6001 55.4 61.7001 55.4 61.8001C55.2 62.2001 55.3 62.8001 55.8 63.0001C55.9 63.1001 56.1 63.1001 56.2 63.1001C56.3 63.1001 56.4 63.1001 56.5 63.1001C57 63.0001 57.2 62.5001 57.1 62.0001C57 61.8001 56.9 61.5001 56.6 61.4001C56.6 61.2001 56.6 60.9001 56.7 60.7001C56.8 60.5001 56.9 60.2001 57.1 60.1001C57.2 60.0001 57.2 60.0001 57.3 59.9001C57.4 59.9001 57.4 59.9001 57.5 59.9001C57.6 59.9001 57.7 59.9001 57.8 59.9001C58 59.8001 58.2 59.7001 58.3 59.5001C58.1 59.4001 58.2 59.2001 58.1 58.9001ZM79.2 43.7001C79.1 43.2001 78.6 42.9001 78.1 43.1001C77.9 43.2001 77.7 43.3001 77.6 43.5001H76.6C76.5 43.5001 76.4 43.6001 76.3 43.7001C76 45.7001 75.2 47.6001 73.8 49.1001L73.6 49.4001H73.5C73.3 49.5001 73.1 49.6001 73 49.8001C72.8 50.2001 72.9 50.8001 73.4 51.0001C73.5 51.1001 73.7 51.1001 73.8 51.1001C73.9 51.1001 74 51.1001 74.1 51.1001C74.6 51.0001 74.8 50.5001 74.7 50.0001C74.7 50.0001 74.7 49.9001 74.6 49.8001C76 48.3001 76.9 46.5001 77.3 44.6001V44.5001C77.3 44.5001 77.4 44.5001 77.5 44.5001C77.6 44.5001 77.7 44.5001 77.7 44.5001C77.9 44.7001 78.1 44.8001 78.4 44.8001C78.5 44.8001 78.6 44.8001 78.7 44.8001C79.1 44.7001 79.3 44.2001 79.2 43.7001Z" fill="white"/>
<path d="M164.4 29.8999C162.7 28.5999 160.7 27.7999 158.5 27.3999C154.9 26.7999 151.2 26.5999 147.5 26.6999H132C128.3 26.5999 124.6 26.8999 121 27.3999C118.9 27.7999 116.9 28.5999 115.1 29.8999C113.4 31.2999 112.2 33.0999 111.5 35.2999C110.7 38.2999 110.3 41.3999 110.4 44.4999V56.9999C110.3 59.8999 110.7 62.6999 111.5 65.4999C112.2 67.4999 113.4 69.2999 115.1 70.6999C116.8 71.9999 118.8 72.7999 120.9 73.1999C124.5 73.7999 128.2 73.9999 131.9 73.8999H147.4C151.1 73.9999 154.8 73.7999 158.5 73.1999C160.6 72.7999 162.6 71.9999 164.3 70.6999C166 69.2999 167.2 67.4999 167.8 65.4999C168.6 62.6999 169 59.6999 168.9 56.7999V43.8999C169 40.9999 168.6 37.9999 167.8 35.1999C167.3 33.0999 166.1 31.2999 164.4 29.8999ZM162.8 55.3999V56.9999C162.9 58.7999 162.7 60.5999 162.4 62.2999C162.2 63.3999 161.7 64.3999 161.1 65.2999C160.1 66.4999 158.8 67.3999 157.3 67.8999C155 68.4999 152.7 68.7999 150.4 68.6999H129.4C127.1 68.7999 124.7 68.4999 122.5 67.8999C121 67.4999 119.7 66.5999 118.7 65.2999C118 64.3999 117.5 63.2999 117.3 62.1999C117 60.1999 116.8 58.2999 116.9 56.2999V44.0999C116.8 42.0999 117 40.0999 117.3 38.1999C117.5 37.0999 118 35.9999 118.7 35.0999C119.7 33.8999 121 32.9999 122.5 32.4999C124.8 31.8999 127.1 31.5999 129.4 31.6999H150.4C152.7 31.5999 155.1 31.8999 157.3 32.4999C158.8 32.8999 160.1 33.7999 161.1 35.0999C161.7 35.9999 162.2 36.9999 162.4 37.9999C162.7 39.7999 162.9 41.5999 162.8 43.3999V55.3999ZM213.3 38.5999C211.4 37.3999 207.6 36.6999 201.8 36.6999H176.4V73.2999H180.9V58.8999H201.8C207.6 58.8999 211.5 58.2999 213.3 57.0999C215.1 55.8999 216.1 53.5999 216.1 50.2999V45.4999C216.1 42.0999 215.1 39.8999 213.3 38.5999ZM209.6 53.5999C208.5 54.3999 206.4 54.7999 203.1 54.7999H180.9V40.7999H203.1C206.4 40.7999 208.6 41.1999 209.6 41.9999C210.6 42.7999 211.2 44.3999 211.2 46.9999V48.6999C211.2 51.0999 210.7 52.7999 209.6 53.5999ZM222.8 73.2999H258.8V69.1999H227.3V56.3999H257.5V52.2999H227.3V40.7999H258.8V36.6999H222.8V73.2999ZM304.2 69.0999L271.8 36.6999H264.8V73.2999H269.3V40.3999L302.2 73.2999H308.7V36.7999H304.3L304.2 69.0999ZM359 48.3999C361.9 47.7999 363.8 46.7999 364.9 45.3999C366 43.9999 366.6 41.5999 366.6 38.2999C366.7 36.0999 366.4 33.9999 365.7 31.8999C365.1 30.3999 364 29.1999 362.7 28.3999C361.2 27.4999 359.6 26.9999 358 26.7999C355 26.3999 351.9 26.2999 348.9 26.2999H316V73.6999H347.8C356.1 73.6999 361.6 72.8999 364.3 71.2999C367 69.6999 368.3 66.7999 368.3 62.5999V57.5999C368.3 54.4999 367.6 52.2999 366.2 50.7999C364.8 49.2999 362.3 48.5999 359 48.3999ZM321.7 31.3999H348.8C351.2 31.3999 353.6 31.3999 356 31.6999C357.1 31.7999 358.2 32.1999 359.2 32.6999C359.9 33.1999 360.5 33.8999 360.7 34.7999C361 36.0999 361.2 37.4999 361.1 38.8999C361.1 41.7999 360.4 43.7999 359.1 44.6999C357.8 45.5999 354.1 46.0999 347.9 46.0999H321.7V31.3999ZM360.5 66.7999C359.1 67.7999 356.2 68.2999 351.7 68.2999H321.6V51.6999H351.7C356.3 51.6999 359.2 52.1999 360.5 53.2999C361.8 54.3999 362.5 56.7999 362.5 60.4999C362.6 63.6999 361.9 65.7999 360.5 66.7999ZM428.9 57.4999H423.6V58.7999C423.6 62.5999 422.8 65.1999 421.2 66.6999C419.6 68.1999 416.6 68.8999 412.3 68.8999H392.4C390.3 68.9999 388.1 68.6999 386 68.0999C384.6 67.5999 383.3 66.6999 382.5 65.4999C381.9 64.5999 381.4 63.4999 381.2 62.3999C380.9 60.3999 380.8 58.3999 380.8 56.2999V43.5999C380.7 41.5999 380.9 39.4999 381.2 37.4999C381.4 36.3999 381.8 35.2999 382.5 34.3999C383.4 33.1999 384.6 32.1999 386 31.7999C388.1 31.1999 390.2 30.8999 392.4 30.9999H412.3C416.3 30.9999 419.1 31.6999 420.6 33.1999C422.2 34.6999 423 37.2999 423 40.9999V41.6999H428.3C428.3 41.3999 428.3 41.0999 428.3 40.6999C428.3 40.2999 428.3 39.7999 428.3 39.1999C428.3 34.0999 427 30.5999 424.3 28.6999C421.6 26.7999 416.6 25.7999 409.1 25.7999H394.6C391.2 25.6999 387.8 25.9999 384.4 26.4999C382.4 26.8999 380.5 27.7999 379 29.0999C377.4 30.5999 376.2 32.4999 375.7 34.5999C374.9 37.6999 374.6 40.7999 374.7 43.9999V56.8999C374.6 59.8999 375 62.7999 375.7 65.6999C376.3 67.6999 377.4 69.5999 379 70.9999C380.5 72.2999 382.4 73.1999 384.3 73.5999C387.7 74.1999 391.2 74.3999 394.6 74.2999H409C412.6 74.3999 416.2 74.1999 419.8 73.5999C421.7 73.2999 423.5 72.4999 425 71.2999C426.3 70.0999 427.3 68.5999 427.8 66.9999C428.4 64.6999 428.7 62.2999 428.7 59.8999C428.7 59.6999 428.7 59.2999 428.7 58.7999C428.7 58.2999 428.9 57.7999 428.9 57.4999ZM436.3 26.2999V73.6999H442V26.2999H436.3Z" fill="white"/>
</g>
<defs>
<clipPath id="clip0_390_5">
<rect width="442" height="100" fill="white"/>
</clipPath>
</defs>
</svg>
