<svg width="123" height="26" viewBox="0 0 123 26" fill="none" xmlns="http://www.w3.org/2000/svg">
<path d="M36.5019 20.4465C37.567 20.7172 38.6948 20.7589 39.8226 20.5507C40.9504 20.3424 41.9737 19.9676 42.8926 19.3636L40.3865 17.5726C39.6346 17.9683 38.1309 17.9891 37.1285 17.7601C36.4184 17.5935 35.7709 17.3019 35.1862 16.8645C34.6014 16.448 34.1211 15.9691 33.7034 15.3651C33.2857 14.7403 33.0351 14.0531 32.8889 13.3034C32.7427 12.5536 32.7844 11.8247 32.9515 11.0958C33.1186 10.3878 33.411 9.72136 33.8287 9.15906C34.2464 8.57596 34.7267 8.09695 35.3533 7.68043C35.9589 7.28475 36.669 7.03485 37.4208 6.88907C38.9037 6.61834 40.282 6.93074 41.5769 7.80542L43.185 5.53543C42.287 4.91066 41.3054 4.49412 40.2403 4.22339C39.1752 3.95265 38.0683 3.93185 36.9405 4.14011C35.8127 4.34836 34.7894 4.74405 33.8704 5.348C32.9306 5.95194 32.1579 6.68082 31.5314 7.57632C30.9257 8.45099 30.508 9.40899 30.2365 10.4711C29.965 11.554 29.9232 12.6578 30.1321 13.7824C30.3409 14.8861 30.7169 15.8858 31.3225 16.8229C31.9282 17.7601 32.7009 18.5306 33.5781 19.1554C34.4761 19.7593 35.4159 20.1758 36.5019 20.4465Z" fill="white"/>
<path d="M52.5678 4.03589C50.2495 4.03589 48.2864 4.8689 46.6783 6.49331C45.0493 8.11771 44.2139 10.0753 44.2139 12.3661C44.2139 14.6778 45.0493 16.6146 46.6783 18.239C48.3073 19.8634 50.2495 20.6964 52.5678 20.6964C54.886 20.6964 56.8282 19.8634 58.4572 18.239C60.1071 16.6354 60.9425 14.6778 60.9425 12.3661C60.9425 10.0753 60.1071 8.11771 58.4572 6.49331C56.8282 4.8689 54.886 4.03589 52.5678 4.03589ZM52.5678 6.82653C54.0923 6.82653 55.4081 7.368 56.4941 8.45092C57.5801 9.53385 58.1231 10.8459 58.1231 12.3661C58.1231 13.8864 57.601 15.1984 56.4941 16.3022C55.4081 17.3851 54.0923 17.9057 52.5678 17.9057C51.0432 17.9057 49.7065 17.3851 48.6205 16.3022C47.5345 15.2192 47.0124 13.8864 47.0124 12.3661C47.0124 10.8459 47.5345 9.53385 48.6205 8.45092C49.7274 7.34716 51.0432 6.82653 52.5678 6.82653Z" fill="white"/>
<path d="M69.2373 20.4465C70.3024 20.7172 71.4302 20.7589 72.5579 20.5507C73.6857 20.3424 74.7091 19.9676 75.628 19.3636L73.1218 17.5726C72.37 17.9683 70.8663 17.9891 69.8638 17.7601C69.1537 17.5935 68.5063 17.3019 67.9215 16.8645C67.3368 16.448 66.8564 15.9691 66.4387 15.3651C66.021 14.7403 65.7704 14.0531 65.6242 13.3034C65.478 12.5536 65.5198 11.8247 65.6869 11.0958C65.8539 10.3878 66.1463 9.72136 66.564 9.15906C66.9817 8.57596 67.4621 8.09695 68.0886 7.68043C68.6943 7.28475 69.4043 7.03485 70.1562 6.88907C71.639 6.61834 73.0174 6.93074 74.3123 7.80542L75.9204 5.53543C75.0223 4.91066 74.0408 4.49412 72.9756 4.22339C71.9105 3.95265 70.8036 3.93185 69.6758 4.14011C68.5481 4.34836 67.5247 4.74405 66.6058 5.348C65.666 5.95194 64.8933 6.68082 64.2667 7.57632C63.6611 8.45099 63.2434 9.40899 62.9719 10.4711C62.7004 11.554 62.6586 12.6578 62.8674 13.7824C63.0763 14.8861 63.4522 15.8858 64.0579 16.8229C64.6635 17.7601 65.4362 18.5306 66.3134 19.1554C67.2114 19.7593 68.1513 20.1758 69.2373 20.4465Z" fill="white"/>
<path d="M82.8885 15.1568L85.3529 10.2627L87.7964 15.1568H90.9291L85.3529 4.03589L76.999 20.6964H80.09L81.5101 17.9057L82.8885 15.1568ZM92.3075 17.9266H89.2166L90.595 20.6964H93.7068L92.3075 17.9266Z" fill="white"/>
<path d="M99.4847 17.9057L96.707 20.6964H107.839V17.9057H99.4847ZM96.707 4.03589V4.49406V16.927L99.4847 14.1363V4.49406V4.03589H96.707Z" fill="white"/>
<path d="M115.824 20.4465C116.889 20.7172 118.017 20.7589 119.145 20.5507C120.273 20.3424 121.296 19.9676 122.215 19.3636L119.709 17.5726C118.957 17.9683 117.453 17.9891 116.451 17.7601C115.741 17.5935 115.093 17.3019 114.508 16.8645C113.924 16.448 113.443 15.9691 113.026 15.3651C112.608 14.7403 112.357 14.0531 112.211 13.3034C112.065 12.5536 112.107 11.8247 112.274 11.0958C112.441 10.3878 112.733 9.72136 113.151 9.15906C113.569 8.57596 114.049 8.09695 114.676 7.68043C115.281 7.28475 115.991 7.03485 116.743 6.88907C118.226 6.61834 119.604 6.93074 120.899 7.80542L122.507 5.53543C121.609 4.91066 120.628 4.49412 119.563 4.22339C118.497 3.95265 117.391 3.93185 116.263 4.14011C115.135 4.34836 114.112 4.74405 113.193 5.348C112.253 5.95194 111.48 6.68082 110.854 7.57632C110.248 8.45099 109.83 9.40899 109.559 10.4711C109.287 11.554 109.245 12.6578 109.454 13.7824C109.663 14.8861 110.039 15.8858 110.645 16.8229C111.25 17.7601 112.023 18.5306 112.9 19.1554C113.798 19.7593 114.738 20.1758 115.824 20.4465Z" fill="white"/>
<path d="M12.6528 4.93042C12.1222 4.93042 11.6054 4.98396 11.1058 5.08561C10.6063 5.18726 10.1241 5.33722 9.66564 5.53042C9.20716 5.72362 8.77211 5.96054 8.36482 6.2352C7.95752 6.50986 7.57806 6.82229 7.23203 7.16831C6.88601 7.51434 6.57358 7.8938 6.29892 8.30109C6.02426 8.70839 5.78734 9.14344 5.59414 9.60192C5.40094 10.0604 5.25098 10.5425 5.14933 11.0421C5.04768 11.5417 4.99414 12.0585 4.99414 12.5891C4.99414 13.1196 5.04768 13.6374 5.14933 14.137C5.25098 14.6366 5.40094 15.1177 5.59414 15.5762C5.78734 16.0347 6.02426 16.4707 6.29892 16.878C6.57358 17.2853 6.88601 17.6648 7.23203 18.0108C7.57806 18.3568 7.95752 18.6693 8.36482 18.9439C8.77211 19.2186 9.20716 19.4555 9.66564 19.6487C10.1241 19.8419 10.6063 19.9919 11.1058 20.0935C11.6054 20.1952 12.1222 20.2477 12.6528 20.2477C13.1833 20.2477 13.7012 20.1952 14.2007 20.0935C14.7003 19.9919 15.1824 19.8419 15.6409 19.6487C16.0994 19.4555 16.5344 19.2186 16.9417 18.9439C17.349 18.6693 17.7285 18.3568 18.0745 18.0108C18.4206 17.6648 18.733 17.2853 19.0076 16.878C19.2823 16.4707 19.5192 16.0347 19.7124 15.5762C19.9056 15.1177 20.0556 14.6366 20.1572 14.137C20.2589 13.6374 20.3114 13.1196 20.3114 12.5891C20.3114 12.0585 20.2589 11.5417 20.1572 11.0421C20.0556 10.5425 19.9056 10.0604 19.7124 9.60192C19.5192 9.14344 19.2823 8.70839 19.0076 8.30109C18.733 7.8938 18.4206 7.51434 18.0745 7.16831C17.7285 6.82229 17.349 6.50986 16.9417 6.2352C16.5344 5.96054 16.0994 5.72362 15.6409 5.53042C15.1824 5.33722 14.7003 5.18726 14.2007 5.08561C13.7012 4.98396 13.1833 4.93042 12.6528 4.93042Z" fill="white"/>
<path d="M11.3871 0C8.26627 0.31366 5.37315 1.77537 3.26907 4.10155C1.16499 6.42772 -3.93786e-05 9.45252 9.98283e-10 12.5891C0.00372674 14.3805 0.387816 16.1507 1.12685 17.7825L3.32422 16.5133C3.06954 15.9111 2.87154 15.2797 2.73707 14.6254C2.60186 13.9675 2.53048 13.2861 2.53048 12.5891C2.53048 11.8922 2.60186 11.2118 2.73707 10.5539C2.87227 9.89595 3.0715 9.26115 3.32817 8.65601C3.58484 8.05087 3.89887 7.4757 4.26326 6.93707C4.62766 6.39843 5.04244 5.89594 5.50082 5.43756C5.9592 4.97918 6.4617 4.56439 7.00033 4.2C7.53896 3.8356 8.11413 3.52158 8.71927 3.26491C9.32442 3.00824 9.95922 2.80901 10.6171 2.6738C10.8703 2.62178 11.1277 2.58195 11.3871 2.54926V0ZM13.9176 0.0128503V2.54926C14.1775 2.58196 14.4353 2.62174 14.6886 2.6738C15.3465 2.80901 15.9813 3.00824 16.5865 3.26491C17.1916 3.52158 17.7668 3.8356 18.3054 4.2C18.8441 4.56439 19.3466 4.97918 19.8049 5.43756C20.2633 5.89594 20.6781 6.39843 21.0425 6.93707C21.4069 7.4757 21.7209 8.05087 21.9776 8.65601C22.2343 9.26115 22.4335 9.89595 22.5687 10.5539C22.7039 11.2118 22.7743 11.8922 22.7743 12.5891C22.7743 13.2861 22.7039 13.9675 22.5687 14.6254C22.4342 15.2799 22.2353 15.911 21.9806 16.5133L24.174 17.7796C24.914 16.1489 25.2994 14.3798 25.3048 12.5891C25.3016 9.45474 24.1352 6.4331 22.0314 4.10963C19.9276 1.78616 17.0363 0.326287 13.9176 0.0128503ZM4.60329 18.6969L2.39308 19.973C3.5633 21.6013 5.10378 22.9282 6.88752 23.8442C8.67127 24.7602 10.6472 25.2391 12.6524 25.2415C14.6573 25.2384 16.6327 24.759 18.4159 23.8426C20.1991 22.9263 21.739 21.5993 22.9087 19.971L20.7025 18.6969C20.4239 19.0631 20.1297 19.4169 19.8049 19.7417C19.3466 20.2001 18.8441 20.6148 18.3054 20.9792C17.7668 21.3436 17.1916 21.6577 16.5865 21.9143C15.9813 22.171 15.3465 22.3702 14.6886 22.5054C14.0307 22.6406 13.3493 22.711 12.6524 22.711C11.9554 22.711 11.275 22.6406 10.6171 22.5054C9.95922 22.3702 9.32442 22.171 8.71927 21.9143C8.11413 21.6577 7.53896 21.3436 7.00033 20.9792C6.4617 20.6148 5.9592 20.2001 5.50082 19.7417C5.17606 19.4169 4.88187 19.0631 4.60329 18.6969Z" fill="white"/>
</svg>
