<svg width="140" height="28" viewBox="0 0 140 28" fill="none" xmlns="http://www.w3.org/2000/svg">
<path fill-rule="evenodd" clip-rule="evenodd" d="M13.5065 10.3159L13.5185 10.3389C13.8715 10.3389 14.1335 9.94492 14.1925 9.44592C13.9025 9.54292 13.6175 9.64493 13.3345 9.74593C13.2995 9.80593 13.2645 9.86592 13.2245 9.91892C13.0945 10.0589 13.3285 10.3149 13.5065 10.3149V10.3159ZM30.2545 10.6459C29.5135 7.64592 23.7115 6.89992 16.7675 8.68592C16.5195 8.87192 16.2365 8.95592 16.0175 8.99092C15.4405 9.07592 15.2335 9.11393 15.1775 9.48693C15.1225 9.85993 16.1075 10.0439 16.7705 9.55993C17.2165 9.23593 17.5375 8.53293 17.9335 8.48393C18.4475 8.42293 18.5405 9.77292 18.2465 10.4379C17.9515 11.1029 16.9595 11.5319 16.5865 11.1959C16.4585 11.0739 16.4765 11.0059 16.4585 10.7209C16.4405 10.4349 15.7845 10.4879 15.7845 10.9219C15.8045 11.2249 15.7905 11.5319 15.7405 11.8319C15.5565 12.7859 13.8475 12.9379 13.4045 12.8879C12.9645 12.8379 12.4245 12.4909 12.6875 12.2749C13.2905 11.7999 12.9145 10.6889 12.0425 10.2369C11.7685 10.3469 11.4975 10.4609 11.2285 10.5779C11.2563 10.6457 11.2998 10.706 11.3554 10.7536C11.4111 10.8013 11.4773 10.835 11.5485 10.8519C11.7346 10.908 11.8982 11.0214 12.0161 11.1759C12.1339 11.3304 12.2 11.5182 12.2049 11.7125C12.2098 11.9068 12.1532 12.0976 12.0432 12.2579C11.9333 12.4181 11.7756 12.5396 11.5925 12.6049C10.4525 13.2349 9.67953 12.0679 9.61253 11.8119C9.55753 11.6019 9.47553 11.5199 9.27153 11.4969C3.98153 14.1859 0.606529 17.6949 1.24153 20.3019C2.06453 23.6559 9.22753 24.1959 17.2365 21.5239C25.2465 18.8529 31.0795 14.0029 30.2545 10.6459Z" fill="url(#paint0_linear_377_13)"/>
<path fill-rule="evenodd" clip-rule="evenodd" d="M13.5922 7.75505C13.5058 7.77075 13.4275 7.81589 13.3706 7.88279C13.3137 7.9497 13.2818 8.03424 13.2802 8.12205C13.2912 8.33605 13.5422 8.48405 13.5422 8.85505C13.5752 9.23723 13.4615 9.61765 13.2242 9.91905C13.0962 10.059 13.3292 10.316 13.5072 10.316L13.5192 10.339C13.9242 10.339 14.2102 9.82005 14.2042 9.21305C14.2542 8.48105 13.9652 7.63005 13.5922 7.75305V7.75505ZM15.9952 7.74905C16.0489 7.71268 16.0914 7.66214 16.1182 7.60305C16.1375 7.55867 16.1473 7.51071 16.1469 7.4623C16.1465 7.41389 16.1359 7.36611 16.1158 7.32206C16.0957 7.27801 16.0666 7.23869 16.0303 7.20664C15.994 7.17459 15.9514 7.15054 15.9052 7.13605C15.7182 7.17805 15.5252 7.18105 15.3392 7.14805C15.1526 7.11317 14.9744 7.0429 14.8142 6.94105C14.5452 6.72805 14.6802 6.02605 14.6802 6.02605C14.6912 5.79205 14.4402 5.70205 14.3502 5.69605C14.2572 5.69005 14.0442 5.65205 13.9102 6.00205C13.8422 6.26805 13.8542 6.57405 13.9272 6.83905C14.0002 7.10505 14.1402 7.34705 14.3322 7.54205C14.5602 7.73205 14.8402 7.85205 15.1352 7.88905C15.4292 7.92705 15.7302 7.87805 15.9982 7.74905H15.9952ZM28.6302 23.333C28.0172 21.519 25.1002 17.843 21.7962 15.298C21.1902 14.644 21.0612 13.708 20.8052 12.81C20.4518 11.8479 20.2835 10.8277 20.3092 9.80305C20.4662 9.07605 20.6702 8.36205 20.9212 7.66505C21.3272 6.18005 21.6592 4.67205 21.9132 3.15505C22.0577 2.33019 22.037 1.48483 21.8522 0.668047C21.5752 -0.443953 17.3542 2.79405 16.5702 3.32505C15.7522 2.91434 14.872 2.64134 13.9652 2.51705C12.1542 2.33605 10.3252 2.57205 8.62217 3.20805C7.14017 2.18105 4.67517 0.116047 3.84217 0.434047H3.85917C3.09217 0.752047 3.45317 2.32105 3.60817 3.26905C3.98117 5.51805 4.92017 8.09605 5.16517 10.149C6.04917 17.569 6.37317 21.951 14.1082 26.509C14.9622 26.944 15.8582 27.294 16.7802 27.553C18.6782 27.804 19.3842 26.894 19.3842 26.282C19.3092 25.6186 19.0038 25.0024 18.5212 24.541C17.8972 23.843 16.8792 23.038 16.4062 22.464C17.6457 22.3177 18.8743 22.0906 20.0842 21.784C20.479 21.6381 20.8905 21.542 21.3092 21.498C21.5183 21.526 21.7121 21.6227 21.8602 21.773C22.3832 22.207 22.8782 22.671 23.3502 23.161C23.9607 23.8486 24.6252 24.4863 25.3372 25.068C25.747 25.4052 26.2588 25.594 26.7894 25.6036C27.3201 25.6132 27.8384 25.4431 28.2602 25.121C28.5072 24.902 28.6772 24.611 28.7442 24.287C28.8119 23.9645 28.773 23.6286 28.6332 23.33L28.6302 23.333ZM18.2502 10.438C17.9552 11.103 16.9632 11.532 16.5902 11.197C16.4622 11.074 16.4802 11.007 16.4622 10.721C16.4442 10.435 15.7882 10.488 15.7882 10.923C15.8082 11.226 15.7942 11.533 15.7442 11.833C15.5602 12.786 13.8512 12.938 13.4082 12.888C12.9682 12.838 12.4282 12.492 12.6902 12.276C13.3302 11.774 12.8742 10.564 11.9002 10.167C11.5502 10.033 11.4162 9.98305 11.2872 10.112C11.2396 10.1743 11.2086 10.2476 11.1972 10.325C11.1863 10.4012 11.1931 10.4789 11.2172 10.552C11.2442 10.625 11.2872 10.692 11.3462 10.742C11.4042 10.794 11.4742 10.832 11.5502 10.85C11.7373 10.9046 11.9022 11.0174 12.0209 11.1721C12.1395 11.3267 12.2058 11.5152 12.2102 11.71C12.2152 11.9046 12.1577 12.0956 12.0462 12.255C11.9362 12.416 11.7779 12.5379 11.5942 12.603C10.4542 13.233 9.68017 12.066 9.61417 11.809C9.54617 11.553 9.44117 11.486 9.11717 11.486C7.56617 11.436 7.59217 10.82 7.43717 10.368C7.28317 9.91605 7.67717 9.70305 7.74417 9.75605C7.97417 9.95405 8.26317 10.074 8.56617 10.097C8.89017 10.042 8.86117 10.243 9.17917 10.654C9.71917 11.351 10.1852 10.435 9.87917 10.264C9.20517 9.87805 9.38317 9.26005 9.62217 9.12605C9.67954 9.10351 9.73065 9.0675 9.77117 9.02105C9.81078 8.97354 9.83858 8.91734 9.85231 8.85703C9.86604 8.79672 9.86531 8.73402 9.85017 8.67405C9.83377 8.61456 9.80362 8.55975 9.76217 8.51405C9.67986 8.43508 9.57022 8.391 9.45617 8.391C9.34211 8.391 9.23247 8.43508 9.15017 8.51405C8.73817 8.89305 8.99517 9.36205 8.65417 9.39405C8.14617 9.43205 7.28017 8.82005 7.63617 7.59805C7.99217 6.37605 9.47317 6.37605 9.47317 6.37605L9.43517 6.79805C9.4609 7.0579 9.54032 7.30958 9.66839 7.53715C9.79646 7.76471 9.97039 7.9632 10.1792 8.12005C11.1042 8.64505 12.0602 8.38805 12.1332 8.03505C12.1772 7.81605 11.8772 7.56005 11.3982 7.58905C11.1106 7.62093 10.8211 7.54994 10.5809 7.38866C10.3408 7.22739 10.1655 6.98626 10.0862 6.70805C10.0488 6.37523 10.1291 6.03984 10.3132 5.76005C10.4972 5.48005 10.7712 5.27005 11.0932 5.16805C11.336 5.07811 11.603 5.07808 11.8459 5.16796C12.0887 5.25784 12.2914 5.43169 12.4172 5.65805C12.4512 5.72205 12.4602 5.79805 12.5072 5.85305C12.576 5.93914 12.6743 5.9967 12.783 6.01461C12.8918 6.03252 13.0034 6.00952 13.0962 5.95005C13.0962 5.95005 13.6852 5.04605 14.3942 5.09505C14.5982 5.11005 14.7942 5.17405 14.9682 5.27905C15.1432 5.38405 15.2892 5.53305 15.3942 5.70805C15.3942 5.70805 17.0192 5.38405 17.2872 6.81305C17.5992 8.45305 16.5962 8.90405 16.0182 8.98905C15.4412 9.07305 15.2342 9.11105 15.1782 9.48505C15.1232 9.85805 16.1082 10.042 16.7712 9.55805C17.2172 9.23405 17.5382 8.53105 17.9352 8.48105C18.4482 8.42105 18.5412 9.77105 18.2472 10.435L18.2502 10.438Z" fill="white"/>
<path d="M13.5894 12.9699C13.5134 12.9699 13.4524 12.9669 13.4024 12.9599C13.0614 12.9229 12.6294 12.7069 12.5594 12.4699C12.5334 12.3769 12.5624 12.2869 12.6474 12.2199C12.8574 12.0539 12.9474 11.7939 12.9034 11.4819C12.8304 10.9659 12.4074 10.4519 11.8734 10.2339C11.5214 10.0969 11.4304 10.0759 11.3434 10.1579C11.305 10.2093 11.2799 10.2694 11.2704 10.3329C11.2615 10.3974 11.2673 10.463 11.2874 10.5249C11.3101 10.5864 11.3475 10.6414 11.3963 10.6852C11.4451 10.7289 11.5038 10.7601 11.5674 10.7759C11.7695 10.8356 11.9475 10.9577 12.076 11.1248C12.2044 11.2918 12.2767 11.4953 12.2824 11.7059C12.2888 11.9153 12.2283 12.1213 12.1096 12.2939C11.9909 12.4666 11.8202 12.5969 11.6224 12.6659C11.2204 12.8879 10.8214 12.9169 10.4394 12.7539C9.91742 12.5289 9.58942 12.0039 9.54342 11.8239C9.48842 11.6139 9.42742 11.5549 9.11742 11.5549C7.68842 11.5109 7.53742 10.9749 7.41742 10.5429C7.40309 10.4902 7.38742 10.4378 7.37042 10.3859C7.26242 10.0699 7.39442 9.83991 7.55142 9.73191C7.62742 9.67991 7.72942 9.64191 7.79342 9.69391C8.01242 9.88091 8.28042 9.99391 8.56642 10.0209C8.83542 9.97991 8.91342 10.1079 9.03342 10.3009C9.08342 10.3829 9.14742 10.4879 9.24042 10.6069C9.38042 10.7879 9.52042 10.8639 9.65142 10.8289C9.78842 10.7909 9.88742 10.6299 9.90542 10.4959C9.91142 10.4579 9.91442 10.3619 9.84742 10.3239C9.40342 10.0699 9.33742 9.74091 9.33742 9.56591C9.33742 9.34991 9.44142 9.14291 9.58742 9.05791L9.59642 9.05291C9.6432 9.03455 9.68499 9.00543 9.71842 8.96791C9.75069 8.92972 9.77356 8.8845 9.78519 8.83587C9.79683 8.78725 9.7969 8.73657 9.78542 8.68791C9.77277 8.63957 9.74759 8.59541 9.71242 8.55991C9.64413 8.49522 9.55349 8.4594 9.45942 8.45991C9.36385 8.46071 9.27209 8.49748 9.20242 8.56291C9.01242 8.73791 8.98042 8.92691 8.94842 9.09591C8.91942 9.26591 8.88742 9.44291 8.66042 9.46391C8.36042 9.48391 8.00642 9.30891 7.77642 9.02591C7.47642 8.65591 7.40042 8.13991 7.56642 7.57391C7.93342 6.31391 9.45942 6.29891 9.47342 6.29891H9.55242L9.50842 6.79191C9.53542 7.03991 9.60842 7.27591 9.73042 7.49491C9.85242 7.71391 10.0164 7.89991 10.2174 8.05191C10.8354 8.40191 11.4684 8.39591 11.8244 8.23591C11.9584 8.17491 12.0434 8.09591 12.0604 8.01391C12.0724 7.96191 12.0494 7.89991 12.0004 7.84191C11.9094 7.73991 11.7044 7.63491 11.4014 7.65491C11.0972 7.68816 10.791 7.61275 10.537 7.44201C10.283 7.27127 10.0975 7.0162 10.0134 6.72191V6.70991C9.97242 6.35991 10.0574 6.00791 10.2494 5.71291C10.4424 5.41791 10.7304 5.19991 11.0664 5.09191C11.3224 4.99491 11.6064 4.99491 11.8654 5.09191C12.1254 5.18791 12.3404 5.37491 12.4754 5.61691C12.4924 5.64891 12.5044 5.68091 12.5154 5.70991C12.5241 5.74248 12.5391 5.77305 12.5594 5.79991C12.5971 5.84779 12.646 5.88563 12.7019 5.91005C12.7577 5.93447 12.8187 5.94473 12.8794 5.93991C12.9361 5.935 12.991 5.91794 13.0404 5.88991C13.1224 5.76791 13.6944 4.96591 14.3974 5.01591C14.604 5.03064 14.8044 5.0928 14.983 5.19755C15.1616 5.3023 15.3137 5.44684 15.4274 5.61991C15.6134 5.58991 16.2754 5.52291 16.7824 5.86791C17.0864 6.07191 17.2784 6.38391 17.3544 6.79191C17.4824 7.46891 17.4044 8.01691 17.1214 8.41691C16.7824 8.89491 16.2434 9.01991 16.0244 9.05291C15.4344 9.13991 15.2924 9.17291 15.2454 9.48691C15.2344 9.56591 15.3014 9.62391 15.3594 9.65891C15.6134 9.81391 16.2464 9.83991 16.7244 9.48991C16.9024 9.36191 17.0624 9.16591 17.2174 8.97691C17.4454 8.69691 17.6604 8.43391 17.9234 8.40191C18.0544 8.38791 18.1734 8.44291 18.2644 8.56791C18.5324 8.92991 18.5564 9.90391 18.3114 10.4579C18.1044 10.9279 17.5794 11.2629 17.1714 11.3509C16.9024 11.4089 16.6774 11.3679 16.5354 11.2399C16.4034 11.1149 16.3974 11.0239 16.3894 10.8289C16.3894 10.7939 16.3864 10.7559 16.3834 10.7149C16.3774 10.6249 16.2574 10.6049 16.1874 10.6049C16.0534 10.6069 15.8554 10.6949 15.8554 10.9109C15.8754 11.2139 15.8614 11.5259 15.8114 11.8319C15.6364 12.7419 14.2104 12.9579 13.5834 12.9579L13.5894 12.9699ZM11.4594 9.96491C11.5794 9.96491 11.7224 10.0209 11.9294 10.0999C12.5194 10.3389 12.9704 10.8869 13.0494 11.4619C13.1024 11.8259 12.9914 12.1359 12.7374 12.3339C12.6904 12.3719 12.6904 12.4039 12.6994 12.4299C12.7394 12.5729 13.0814 12.7769 13.4174 12.8149C13.8274 12.8619 15.4994 12.7189 15.6714 11.8179C15.7184 11.5259 15.7324 11.2229 15.7124 10.9249C15.7124 10.6359 15.9574 10.4749 16.1874 10.4669C16.3804 10.4609 16.5234 10.5629 16.5324 10.7119C16.5324 10.7559 16.5374 10.7939 16.5374 10.8289C16.5474 11.0189 16.5494 11.0559 16.6374 11.1409C16.7424 11.2369 16.9224 11.2629 17.1414 11.2169C17.5154 11.1379 17.9934 10.8319 18.1804 10.4089C18.4044 9.90091 18.3904 8.98491 18.1504 8.66191C18.0904 8.57991 18.0224 8.54491 17.9434 8.55391C17.7394 8.57991 17.5434 8.81891 17.3334 9.07591C17.1734 9.27091 17.0074 9.47591 16.8124 9.61591C16.3194 9.97391 15.6244 9.99791 15.2864 9.78991C15.1524 9.70891 15.0854 9.59491 15.1064 9.47291C15.1694 9.04091 15.4504 8.99991 16.0064 8.91491C16.2054 8.88591 16.6984 8.76991 17.0044 8.33791C17.2644 7.96991 17.3374 7.46291 17.2144 6.82391C17.1444 6.45391 16.9724 6.17391 16.7044 5.99291C16.1674 5.63091 15.4124 5.77391 15.4064 5.77691L15.3564 5.78591L15.3304 5.74191C15.2309 5.57776 15.0934 5.43993 14.9294 5.34004C14.7655 5.24015 14.5799 5.18111 14.3884 5.16791C13.7284 5.12091 13.1604 5.98091 13.1544 5.98991L13.1454 6.00491L13.1314 6.01291C13.0597 6.05988 12.977 6.08744 12.8914 6.09291C12.807 6.09792 12.7225 6.08356 12.6444 6.05091C12.5662 6.01716 12.4969 5.96543 12.4424 5.89991C12.412 5.85943 12.3892 5.81366 12.3754 5.76491C12.3675 5.74026 12.3578 5.71619 12.3464 5.69291C12.2302 5.48091 12.0415 5.31791 11.8148 5.23379C11.5882 5.14967 11.3388 5.15007 11.1124 5.23491C10.8075 5.33183 10.5452 5.5306 10.3694 5.79791C10.1974 6.06291 10.1214 6.37791 10.1534 6.69291C10.2297 6.95231 10.3946 7.17671 10.6194 7.32694C10.8442 7.47717 11.1146 7.54369 11.3834 7.51491C11.6904 7.49491 11.9584 7.58491 12.1044 7.75191C12.1834 7.84191 12.2184 7.94691 12.1974 8.04891C12.1714 8.17791 12.0574 8.29391 11.8804 8.37591C11.4894 8.55091 10.8004 8.56291 10.1354 8.18591L10.1274 8.17991C9.9105 8.01776 9.72974 7.81219 9.59665 7.57632C9.46356 7.34044 9.38107 7.07943 9.35442 6.80991V6.80391L9.38342 6.45991C9.07742 6.48291 7.98342 6.63191 7.69442 7.62591C7.54242 8.14591 7.61042 8.61191 7.87842 8.94791C8.10842 9.23291 8.42342 9.34791 8.63642 9.33291C8.73842 9.32291 8.75942 9.27391 8.79142 9.08491C8.82042 8.91291 8.86442 8.67891 9.08842 8.47191C9.18461 8.38091 9.312 8.3302 9.44442 8.3302C9.57684 8.3302 9.70423 8.38091 9.80042 8.47191C9.85217 8.52543 9.88943 8.59125 9.90868 8.66316C9.92793 8.73507 9.92853 8.8107 9.91042 8.88291C9.89473 8.95405 9.86181 9.02025 9.81456 9.0757C9.76731 9.13114 9.70717 9.17414 9.63942 9.20091C9.55242 9.25391 9.46742 9.39691 9.46742 9.58091C9.46742 9.72291 9.52342 9.99491 9.90242 10.2109C10.0024 10.2659 10.0514 10.3819 10.0334 10.5249C10.0104 10.7089 9.88242 10.9249 9.67542 10.9799C9.54042 11.0179 9.33642 10.9999 9.11242 10.7099C9.01242 10.5839 8.94842 10.4759 8.89642 10.3909C8.77642 10.1959 8.74742 10.1519 8.56942 10.1809H8.55242C8.23917 10.1547 7.94163 10.0325 7.70042 9.83091C7.63751 9.84895 7.58276 9.88816 7.54542 9.94191C7.48742 10.0179 7.42942 10.1519 7.49942 10.3559L7.54942 10.5199C7.66842 10.9429 7.79042 11.3829 9.11242 11.4239C9.46742 11.4239 9.59942 11.5109 9.67742 11.8029C9.70742 11.9199 9.99042 12.4209 10.4914 12.6339C10.8324 12.7799 11.1884 12.7509 11.5534 12.5499L11.5644 12.5439C11.7341 12.4858 11.8806 12.3748 11.9825 12.2272C12.0844 12.0796 12.1362 11.9032 12.1304 11.7239C12.1253 11.5449 12.0641 11.372 11.9553 11.2297C11.8466 11.0874 11.6958 10.9829 11.5244 10.9309C11.438 10.9086 11.3583 10.8656 11.2921 10.8057C11.2259 10.7458 11.1752 10.6707 11.1444 10.5869C11.1153 10.5014 11.1064 10.4104 11.1184 10.3209C11.1332 10.2325 11.1681 10.1487 11.2204 10.0759L11.2264 10.0679C11.2545 10.0371 11.2888 10.0125 11.3271 9.99575C11.3653 9.97903 11.4067 9.97057 11.4484 9.97091L11.4594 9.96491ZM13.5194 10.4119H13.4754L13.4604 10.3819C13.3912 10.3661 13.3265 10.3349 13.2711 10.2905C13.2157 10.2462 13.171 10.1899 13.1404 10.1259C13.0964 10.0299 13.1074 9.93591 13.1724 9.86891C13.3964 9.58591 13.5044 9.22791 13.4724 8.85991C13.4724 8.65891 13.3964 8.53291 13.3234 8.41391C13.2684 8.31991 13.2154 8.23291 13.2074 8.12491C13.2082 8.0201 13.2452 7.91877 13.312 7.83805C13.3789 7.75734 13.4716 7.70218 13.5744 7.68191C13.6248 7.66681 13.6781 7.66448 13.7296 7.67513C13.7811 7.68578 13.8292 7.70907 13.8694 7.74291C14.1394 7.95291 14.3214 8.59991 14.2774 9.21891C14.2834 9.62691 14.1554 10.0029 13.9394 10.2219C13.8856 10.2799 13.8207 10.3266 13.7486 10.3592C13.6765 10.3919 13.5985 10.4098 13.5194 10.4119ZM13.6654 7.81591C13.6474 7.81591 13.6324 7.81591 13.6154 7.82491H13.6064C13.5368 7.83989 13.4737 7.87667 13.4264 7.92991C13.3794 7.98286 13.3531 8.05107 13.3524 8.12191C13.3554 8.18891 13.3994 8.25591 13.4464 8.33791C13.5224 8.46291 13.6154 8.61791 13.6154 8.85391C13.6504 9.25091 13.5304 9.64391 13.2804 9.96291C13.2684 9.97391 13.2424 10.0029 13.2704 10.0679C13.3124 10.1579 13.4224 10.2429 13.5044 10.2429H13.5484L13.5594 10.2659C13.6649 10.2515 13.7621 10.201 13.8344 10.1229C14.0204 9.93291 14.1344 9.58591 14.1314 9.21891C14.1694 8.65891 14.0064 8.03991 13.7784 7.86291C13.7465 7.83583 13.7063 7.82032 13.6644 7.81891V7.81591H13.6654ZM15.3254 7.97291C14.9438 7.97551 14.5737 7.84223 14.2814 7.59691C14.0769 7.39131 13.9288 7.13644 13.8514 6.85691C13.773 6.57189 13.7672 6.27178 13.8344 5.98391V5.97491C13.9824 5.59291 14.2304 5.61391 14.3354 5.62291H14.3504C14.4964 5.63391 14.7644 5.76291 14.7504 6.03091V6.03991C14.7144 6.22291 14.6654 6.73391 14.8574 6.88491C15.1634 7.07897 15.5337 7.14404 15.8874 7.06591H15.9224C15.9977 7.08845 16.0649 7.13207 16.1161 7.19162C16.1673 7.25117 16.2004 7.32415 16.2114 7.40191C16.2221 7.4789 16.2118 7.55735 16.1814 7.62891C16.1506 7.70144 16.0991 7.76333 16.0334 7.80691L16.0244 7.81291C15.8024 7.91791 15.5644 7.96991 15.3214 7.96991L15.3254 7.97291ZM13.9744 6.02291C13.9149 6.28429 13.9207 6.55633 13.9914 6.81491C14.0584 7.06891 14.1924 7.29991 14.3794 7.48591C14.5924 7.66391 14.8574 7.77791 15.1404 7.81291C15.4204 7.84791 15.7034 7.80091 15.9604 7.68191C16.0005 7.65357 16.0325 7.61533 16.0534 7.57091C16.0731 7.52387 16.08 7.47247 16.0734 7.42191C16.065 7.372 16.0444 7.32494 16.0134 7.28491C15.9846 7.25025 15.9469 7.22399 15.9044 7.20891C15.5165 7.29116 15.1117 7.21676 14.7784 7.00191C14.4844 6.76891 14.5924 6.11191 14.6104 6.01591C14.6154 5.82991 14.3884 5.77091 14.3474 5.76791H14.3294C14.2394 5.75991 14.0874 5.74791 13.9794 6.02191L13.9744 6.02291Z" fill="#FF761C"/>
<path d="M38.5 6.95312V20.4111C38.5 20.4111 50.493 22.8871 50.493 13.6851C50.493 4.48312 38.5 6.95312 38.5 6.95312ZM41.606 18.0751V9.36512C41.606 9.36512 47.355 8.16412 47.355 13.7001C47.355 18.6661 41.606 18.0771 41.606 18.0771V18.0741V18.0751ZM57.388 9.79512C54.513 9.79512 52.401 12.2351 52.401 15.2511C52.401 18.2671 54.512 20.7111 57.388 20.7111C60.264 20.7111 62.347 18.2701 62.347 15.2541C62.347 12.2381 60.264 9.79712 57.388 9.79712V9.79412V9.79512ZM57.38 18.2501C55.673 18.2501 55.3 16.5111 55.3 15.2541C55.3 13.9971 55.498 12.3001 57.38 12.3001C59.26 12.3001 59.447 13.9941 59.447 15.2541C59.447 16.5141 59.074 18.2501 57.38 18.2501ZM64.843 10.4971V20.3551H67.64V12.4221C67.64 12.4221 69.34 11.9171 70.866 12.6201C71.316 10.9141 71.418 10.3131 71.418 10.3131C71.418 10.3131 69.994 9.70112 68.133 9.82012C66.273 9.94312 64.843 10.4941 64.843 10.4941V10.4971ZM77.694 9.79412C74.611 9.52912 73.197 10.3511 73.197 10.3511L73.465 12.5621C73.465 12.5621 75.241 11.8361 77.145 12.1921C78.475 12.4421 78.38 14.0641 78.38 14.0641H75.81C75.017 14.0641 74.23 14.2421 73.544 14.6441C72.791 15.0881 72.161 15.7701 72.1 17.0591C71.983 19.5361 73.483 20.2741 74.483 20.4891C75.74 20.4891 78.041 20.5331 79.115 20.4891C79.7552 20.452 80.3827 20.2939 80.964 20.0231V12.4051C80.964 12.4051 80.777 10.0541 77.694 9.79112V9.79412ZM78.38 18.3201H75.895C75.895 18.3201 74.912 18.2261 74.912 17.2461C74.912 16.3771 75.478 15.9751 76.012 15.9751H78.377V18.3201H78.38ZM103.034 9.79412C99.951 9.52912 98.537 10.3511 98.537 10.3511L98.802 12.5621C98.802 12.5621 100.578 11.8361 102.483 12.1921C103.816 12.4421 103.717 14.0641 103.717 14.0641H101.147C100.354 14.0641 99.567 14.2421 98.881 14.6441C98.128 15.0881 97.498 15.7701 97.437 17.0591C97.32 19.5361 98.82 20.2741 99.82 20.4891C101.077 20.4891 103.378 20.5331 104.452 20.4891C105.452 20.4491 106.301 20.0231 106.301 20.0231V12.4051C106.301 12.4051 106.114 10.0541 103.031 9.79112L103.034 9.79412ZM103.72 18.3201H101.235C101.235 18.3201 100.252 18.2261 100.252 17.2461C100.252 16.3771 100.817 15.9751 101.351 15.9751H103.717V18.3201H103.72ZM92.105 6.70512V12.1561H86.984V6.70612H83.886V20.2881H86.984V14.8341H92.105V20.2881H95.203V6.70512H92.103H92.105ZM116.792 10.3921L116.217 12.5501C116.217 12.5501 111.522 11.1471 111.568 15.2481C111.618 19.3491 115.267 18.3981 116.39 17.8211C116.64 19.5041 116.789 20.1541 116.789 20.1541C116.789 20.1541 114.438 20.9881 112.391 20.5071C110.34 20.0291 108.342 18.4971 108.491 15.1231C108.64 11.7451 110.944 10.6111 112.041 10.1351C113.893 9.33912 116.789 10.3921 116.789 10.3921H116.792ZM118.892 5.67612L121.864 5.22412V13.7581L125.215 10.0421H128.465L124.469 14.5861C124.469 14.5861 127.916 18.5851 128.645 20.2881C127.671 20.2591 125.271 20.2881 125.271 20.2881C125.271 20.2881 124.224 17.7681 121.92 15.9751V20.2881H118.994L118.895 5.67312L118.892 5.67612ZM137.258 10.3691L136.684 12.4771C136.684 12.4771 133.052 11.4301 132.784 12.7541C132.586 13.7581 134.773 14.2541 135.31 14.5101C136.733 15.1901 137.667 15.9161 137.667 17.4741C137.667 19.0311 136.958 20.6641 133.411 20.6641C129.865 20.6641 129.637 19.9381 129.637 19.9381L130.212 17.6781C130.212 17.6781 131.571 18.5911 133.887 18.3251C135.31 18.1591 134.846 17.0511 133.65 16.5781C132.457 16.1031 129.345 15.4581 130.159 12.3841C131.265 8.23912 137.258 10.3711 137.258 10.3711V10.3691Z" fill="white"/>
<defs>
<linearGradient id="paint0_linear_377_13" x1="5.83253" y1="25.4209" x2="25.6315" y2="5.56692" gradientUnits="userSpaceOnUse">
<stop stop-color="#FF761C"/>
<stop offset="0.98" stop-color="#FFF9F5"/>
</linearGradient>
</defs>
</svg>
